<?xml version="1.0" encoding="UTF-8" standalone="no"?>
<svg
   xmlns:dc="http://purl.org/dc/elements/1.1/"
   xmlns:cc="http://creativecommons.org/ns#"
   xmlns:rdf="http://www.w3.org/1999/02/22-rdf-syntax-ns#"
   xmlns:svg="http://www.w3.org/2000/svg"
   xmlns="http://www.w3.org/2000/svg"
   xmlns:sodipodi="http://sodipodi.sourceforge.net/DTD/sodipodi-0.dtd"
   xmlns:inkscape="http://www.inkscape.org/namespaces/inkscape"
   width="67"
   height="70"
   viewBox="0 0 67 70"
   fill="none"
   version="1.1"
   id="svg33"
   sodipodi:docname="crime.svg"
   inkscape:version="0.92.5 (2060ec1f9f, 2020-04-08)">
  <metadata
     id="metadata37">
    <rdf:RDF>
      <cc:Work
         rdf:about="">
        <dc:format>image/svg+xml</dc:format>
        <dc:type
           rdf:resource="http://purl.org/dc/dcmitype/StillImage" />
      </cc:Work>
    </rdf:RDF>
  </metadata>
  <sodipodi:namedview
     pagecolor="#ffffff"
     bordercolor="#666666"
     borderopacity="1"
     objecttolerance="10"
     gridtolerance="10"
     guidetolerance="10"
     inkscape:pageopacity="0"
     inkscape:pageshadow="2"
     inkscape:window-width="1872"
     inkscape:window-height="1016"
     id="namedview35"
     showgrid="false"
     inkscape:snap-grids="false"
     inkscape:snap-to-guides="false"
     inkscape:snap-global="false"
     inkscape:zoom="9.53584"
     inkscape:cx="48.097675"
     inkscape:cy="35.973423"
     inkscape:window-x="0"
     inkscape:window-y="27"
     inkscape:window-maximized="1"
     inkscape:current-layer="g26" />
  <g
     clip-path="url(#clip0)"
     id="g26">
    <path
       d="M42.1935 40.6453C41.9511 42.9033 41.9511 45.1614 42.1935 47.4195H48.6451C48.8874 45.1614 48.8874 42.9033 48.6451 40.6453H42.1935Z"
       id="path2"
       fill="#F6BE00"
       style="fill:#3640f5;fill-opacity:1" />
    <path
       d="M39.7381 44.0173C39.7381 42.8732 39.7987 41.7291 39.9198 40.6453H34.5889C33.8922 42.8431 33.8922 45.2216 34.5889 47.4195H39.9198C39.7987 46.3055 39.7381 45.1614 39.7381 44.0173Z"
       id="path4"
       fill="#F6BE00"
       style="fill:#3640f5;fill-opacity:1" />
    <path
       d="M45.4361 32.7568C44.4971 32.7568 43.2552 34.8945 42.5586 38.417H48.3439C47.6169 34.8644 46.375 32.7568 45.4361 32.7568Z"
       id="path6"
       fill="#F6BE00"
       style="fill:#3640f5;fill-opacity:1" />
    <path
       d="M45.4312 55.3377C46.3702 55.3377 47.612 53.2302 48.3087 49.6775H42.5234C43.2504 53.2001 44.4922 55.3377 45.4312 55.3377Z"
       id="path8"
       fill="#F6BE00"
       style="fill:#3640f5;fill-opacity:1" />
    <path
       d="M49.043 33.3296C49.8305 34.9253 50.3454 36.6414 50.618 38.3877H55.2523C53.8893 36.0092 51.6781 34.2027 49.043 33.3296Z"
       id="path10"
       fill="#F6BE00"
       style="fill:#3640f5;fill-opacity:1" />
    <path
       d="M49.043 54.7356C51.6479 53.8624 53.859 52.056 55.2523 49.6775H50.618C50.3757 51.4237 49.8305 53.1399 49.043 54.7356Z"
       id="path12"
       fill="#F6BE00"
       style="fill:#3640f5;fill-opacity:1" />
    <path
       d="M45.4361 57.5655C42.7404 57.5655 40.1052 56.7827 37.8638 55.2774C35.6224 53.8021 33.8656 51.6644 32.8358 49.1956C31.8059 46.7268 31.5333 43.987 32.0483 41.3677C32.5632 38.7483 33.8656 36.3096 35.7738 34.4429C37.6821 32.5763 40.1052 31.2515 42.7404 30.7397C45.3756 30.2279 48.1319 30.4989 50.6156 31.5225C53.0993 32.5462 55.2196 34.2924 56.7341 36.5204C58.2182 38.7483 59.0361 41.3677 59.0361 44.0472C59.0361 47.63 57.5822 51.0924 55.0379 53.6214C52.5238 56.1505 49.0406 57.5655 45.4361 57.5655ZM63.6097 24.8386H53.8566L49.6464 20.6537C49.5252 20.5634 49.404 20.473 49.2829 20.4128C49.1314 20.3526 48.98 20.3225 48.8588 20.3225H42.0437C41.8923 20.3225 41.7408 20.3526 41.6197 20.4128C41.4682 20.473 41.3471 20.5634 41.2562 20.6537L37.046 24.8386H27.2625C26.3539 24.8386 25.5058 25.1999 24.8394 25.8322C24.173 26.4644 23.8398 27.3376 23.8398 28.2107V39.1698C23.8398 62.2623 44.2851 69.3376 44.9212 69.8795C45.0727 69.9698 45.2544 69.9999 45.4361 69.9999C45.6179 69.9999 45.7996 69.9698 45.9511 69.8795C46.5568 69.3376 67.0324 62.2623 67.0324 39.1698V28.2408C67.0324 27.3376 66.669 26.4946 66.0329 25.8623C65.3968 25.23 64.5184 24.8386 63.6097 24.8386Z"
       id="path14"
       fill="#F6BE00"
       style="fill:#3640f5;fill-opacity:1" />
    <path
       d="M51.0958 44.0176C51.0958 45.1617 51.0352 46.3058 50.9141 47.3897H56.245C56.9416 45.1918 56.9416 42.8133 56.245 40.6155H50.9141C51.0352 41.7596 51.0958 42.9037 51.0958 44.0176Z"
       id="path16"
       fill="#F6BE00"
       style="fill:#3640f5;fill-opacity:1" />
    <path
       d="M35.625 49.6775C37.0183 52.056 39.2294 53.8624 41.8343 54.7356C41.0468 53.1399 40.5319 51.4237 40.2593 49.6775H35.625Z"
       id="path18"
       fill="#F6BE00"
       style="fill:#3640f5;fill-opacity:1" />
    <path
       d="M35.625 38.3877H40.2593C40.5319 36.6414 41.0771 34.9253 41.8343 33.3296C39.1991 34.2328 37.0183 36.0092 35.625 38.3877Z"
       id="path20"
       fill="#F6BE00"
       style="fill:#3640f5;fill-opacity:1" />
    <path
       d="M53.3698 40.6452H3.39241C3.08951 40.6452 2.78662 40.5247 2.57459 40.314C2.36257 40.1032 2.24141 39.8022 2.24141 39.5011V37.243H54.5208V39.5011C54.5208 39.8022 54.3996 40.1032 54.1876 40.314C53.9756 40.5247 53.6727 40.6452 53.3698 40.6452ZM35.1962 47.4194H21.566V42.9032H35.1962V47.4194ZM3.39241 2.25806H53.3698C53.6727 2.25806 53.9453 2.37849 54.1573 2.58925C54.3996 2.8 54.5208 3.10108 54.5208 3.37204V34.9849H2.2717V3.37204C2.2717 3.07097 2.39286 2.8 2.60488 2.58925C2.81691 2.37849 3.1198 2.25806 3.39241 2.25806ZM53.3698 0H3.39241C2.48373 0 1.63562 0.36129 0.969259 0.993548C0.302893 1.62581 0 2.49892 0 3.37204V39.5011C0 40.4043 0.363472 41.2473 0.999548 41.9097C1.63562 42.5419 2.51401 42.9032 3.42269 42.9032H19.3246V47.4194H17.0226C16.7197 47.4194 16.4168 47.5398 16.2048 47.7505C15.9928 47.9613 15.8716 48.2624 15.8716 48.5333C15.8716 48.8344 15.9928 49.1355 16.2048 49.3161C16.4168 49.5269 16.7197 49.6473 17.0226 49.6473H39.7396C40.0425 49.6473 40.3151 49.5269 40.5271 49.3161C40.7392 49.1054 40.8603 48.8043 40.8603 48.5333C40.8603 48.2323 40.7392 47.9613 40.5271 47.7505C40.3151 47.5398 40.0122 47.4194 39.7396 47.4194H37.4679V42.9032H53.3698C54.2785 42.9032 55.1266 42.5419 55.7627 41.9097C56.3987 41.2774 56.7622 40.4043 56.7622 39.5011V3.37204C56.7622 2.46882 56.3987 1.62581 55.7627 0.993548C55.1266 0.36129 54.2785 0 53.3698 0Z"
       id="path22"
       fill="#111111" />
    <path
       d="M28.4118 9.03287C30.9864 9.03287 33.4702 9.99631 35.3481 11.7727L28.3513 20.7748L23.5958 15.0845C23.3838 14.8436 23.1112 14.6931 22.8083 14.6931C22.5054 14.6931 22.2328 14.7533 21.9905 14.9339C21.7482 15.1146 21.5967 15.4157 21.5967 15.7167C21.5967 16.0178 21.6573 16.3189 21.8693 16.5296L27.5637 23.3038C27.6849 23.4243 27.806 23.5447 27.9575 23.6049C28.1089 23.6651 28.2907 23.7253 28.4421 23.6952C28.6239 23.6952 28.7753 23.6651 28.9268 23.5748C29.0782 23.5146 29.1994 23.3942 29.3205 23.2436L36.8928 13.4888C38.165 15.3554 38.7708 17.6135 38.6193 19.8716C38.4679 22.1296 37.5592 24.2673 36.0145 25.9533C34.5 27.6393 32.4403 28.7834 30.1989 29.1748C27.9272 29.5963 25.6252 29.235 23.5958 28.1511C21.5967 27.0974 19.9914 25.3813 19.0524 23.3339C18.1438 21.2565 17.9317 18.9382 18.4769 16.7404C19.0221 14.5425 20.2943 12.5856 22.1117 11.2006C23.8987 9.78556 26.1098 9.03287 28.4118 9.03287ZM28.4118 31.6135C30.7441 31.6135 33.0158 30.9813 35.0149 29.7468C36.9837 28.5124 38.5891 26.7662 39.6189 24.6888C40.6487 22.6114 41.0728 20.2931 40.8305 17.9748C40.5881 15.6565 39.7098 13.4587 38.2862 11.6221L40.6487 8.58125C40.8305 8.34039 40.9213 8.03932 40.8608 7.73824C40.8305 7.43717 40.679 7.1662 40.4367 6.98556C40.1944 6.80491 39.8915 6.71459 39.5886 6.7748C39.2857 6.80491 39.0131 6.95545 38.8314 7.19631L36.7111 9.93609C35.1966 8.58126 33.3793 7.64792 31.4408 7.13609C29.472 6.68448 27.4123 6.65437 25.4435 7.13609C23.4747 7.61781 21.6573 8.55115 20.1428 9.87588C18.6284 11.2006 17.4471 12.8866 16.7202 14.7533C15.9932 16.6501 15.7509 18.6673 15.9932 20.6845C16.2355 22.6716 16.9625 24.5985 18.1135 26.2544C19.2645 27.9103 20.8092 29.2651 22.5963 30.1985C24.3834 31.1318 26.3825 31.6135 28.4118 31.6135Z"
       id="path24"
       fill="#111111" />
  </g>
  <defs
     id="defs31">
    <clipPath
       id="clip0">
      <rect
         width="67"
         height="70"
         fill="white"
         id="rect28" />
    </clipPath>
  </defs>
</svg>
