<?xml version="1.0" encoding="UTF-8" standalone="no"?>
<svg
   xmlns:dc="http://purl.org/dc/elements/1.1/"
   xmlns:cc="http://creativecommons.org/ns#"
   xmlns:rdf="http://www.w3.org/1999/02/22-rdf-syntax-ns#"
   xmlns:svg="http://www.w3.org/2000/svg"
   xmlns="http://www.w3.org/2000/svg"
   xmlns:sodipodi="http://sodipodi.sourceforge.net/DTD/sodipodi-0.dtd"
   xmlns:inkscape="http://www.inkscape.org/namespaces/inkscape"
   width="67"
   height="67"
   viewBox="0 0 67 67"
   fill="none"
   version="1.1"
   id="svg15"
   sodipodi:docname="customer.svg"
   inkscape:version="0.92.5 (2060ec1f9f, 2020-04-08)">
  <metadata
     id="metadata19">
    <rdf:RDF>
      <cc:Work
         rdf:about="">
        <dc:format>image/svg+xml</dc:format>
        <dc:type
           rdf:resource="http://purl.org/dc/dcmitype/StillImage" />
      </cc:Work>
    </rdf:RDF>
  </metadata>
  <sodipodi:namedview
     pagecolor="#ffffff"
     bordercolor="#666666"
     borderopacity="1"
     objecttolerance="10"
     gridtolerance="10"
     guidetolerance="10"
     inkscape:pageopacity="0"
     inkscape:pageshadow="2"
     inkscape:window-width="1872"
     inkscape:window-height="1016"
     id="namedview17"
     showgrid="false"
     inkscape:zoom="9.9628179"
     inkscape:cx="47.640927"
     inkscape:cy="23.402151"
     inkscape:window-x="0"
     inkscape:window-y="27"
     inkscape:window-maximized="1"
     inkscape:current-layer="g8" />
  <g
     clip-path="url(#clip0)"
     id="g8">
    <path
       d="M58.2701 47.6061C57.9244 47.5772 57.5788 47.5484 57.2331 47.5484C54.6695 47.5484 52.1923 48.5858 50.3776 50.4013C48.5629 52.2168 47.5259 54.6951 47.5259 57.2598C47.5259 57.8073 47.5835 58.3549 47.6699 58.9024C45.2503 59.9686 42.6291 60.5162 39.979 60.5162C37.329 60.5162 34.7077 59.9686 32.2881 58.9312C32.3746 58.3837 32.4322 57.8362 32.4322 57.2886C32.4322 54.6951 31.3952 52.2456 29.5805 50.4301C27.7658 48.6147 25.2886 47.5772 22.6961 47.5772C22.3505 47.5772 22.0048 47.6061 21.688 47.6349C20.939 45.5312 20.5358 43.3123 20.5646 41.0934C20.5646 37.6641 21.4863 34.2925 23.2146 31.3243C24.9429 28.3562 27.4201 25.9067 30.387 24.2065C30.7327 26.5119 31.9137 28.6155 33.6708 30.114C35.4279 31.6125 37.6746 32.4482 40.0078 32.4482C42.341 32.4482 44.5878 31.6125 46.3449 30.114C48.102 28.6155 49.283 26.5119 49.6286 24.2065C52.5955 25.9067 55.1016 28.3562 56.801 31.3243C58.5293 34.2925 59.4511 37.6641 59.4511 41.0934C59.4223 43.2835 59.019 45.5024 58.2701 47.6061ZM60.3728 48.0671C61.1506 45.8194 61.5538 43.4564 61.5826 41.0645C61.5826 37.059 60.4593 33.1398 58.3565 29.7106C56.2537 26.3101 53.2292 23.5437 49.6574 21.757C49.427 19.3364 48.3036 17.1175 46.5177 15.5037C44.7318 13.8899 42.3986 12.9678 39.979 12.9678C37.5594 12.9678 35.2262 13.8611 33.4403 15.5037C31.6544 17.1175 30.531 19.3652 30.3006 21.757C26.7288 23.5437 23.7043 26.3101 21.6016 29.7106C19.4988 33.111 18.3754 37.059 18.3754 41.0645C18.3754 43.4564 18.7787 45.8194 19.5852 48.0671C18.0586 48.5858 16.6471 49.4792 15.5525 50.6895C14.4292 51.871 13.6514 53.3407 13.2482 54.8968C12.8449 56.4817 12.8449 58.1243 13.277 59.7093C13.709 61.2942 14.4868 62.7351 15.5814 63.9166C16.7047 65.0981 18.0874 65.9914 19.614 66.5101C21.1695 67.0288 22.8114 67.1441 24.3956 66.8559C26.0087 66.5678 27.5065 65.8762 28.7451 64.8676C30.0126 63.859 30.9919 62.5334 31.6256 61.0349C34.2757 62.1299 37.0985 62.7063 39.9502 62.7063C42.8019 62.7063 45.6248 62.1299 48.2748 61.0349C48.9085 62.5334 49.8879 63.859 51.1553 64.8676C52.4227 65.8762 53.9206 66.5678 55.5336 66.8559C57.1467 67.1441 58.7886 67.0288 60.3152 66.5101C61.8707 65.9914 63.2533 65.0981 64.3479 63.9166C65.4713 62.7351 66.249 61.2654 66.6523 59.7093C67.0555 58.1243 67.0555 56.4817 66.6523 54.8968C66.249 53.3119 65.4713 51.871 64.3767 50.6607C63.3109 49.4792 61.8995 48.5858 60.3728 48.0671Z"
       fill="#F6BE00"
       id="path2"
       style="fill:#3640f5;fill-opacity:1" />
    <path
       d="M21.544 19.1065C21.4288 18.8472 21.2271 18.6454 20.9391 18.5302C20.651 18.4149 20.363 18.4437 20.1038 18.5302C19.8733 18.6454 19.6429 18.8472 19.5565 19.1353C19.4412 19.3947 19.47 19.7117 19.5565 19.971C20.1902 21.4119 21.1983 22.6222 22.4657 23.4867C23.762 24.3513 25.2598 24.8411 26.8153 24.87H27.1609C28.7164 24.8411 30.2142 24.3513 31.5105 23.4867C32.8067 22.6222 33.8148 21.3831 34.4197 19.971C34.535 19.7117 34.535 19.4235 34.4197 19.1353C34.3045 18.876 34.1029 18.6454 33.8436 18.5302C33.5844 18.4149 33.2964 18.4149 33.0083 18.5302C32.7491 18.6454 32.5186 18.8472 32.4034 19.1065C31.9425 20.1439 31.2224 21.0373 30.2719 21.6713C29.3501 22.3052 28.2267 22.6799 27.1033 22.7087H26.8153C25.6631 22.6799 24.5685 22.334 23.6179 21.7001C22.725 21.0373 22.0049 20.1439 21.544 19.1065Z"
       fill="#111111"
       id="path4" />
    <path
       d="M51.8487 41.0656H44.5611C43.6969 38.2415 42.1414 35.7056 40.0963 33.6019C38.0224 31.4983 35.4875 29.9421 32.6935 28.9912C35.4875 27.6656 37.7343 25.4466 39.1169 22.6802C40.7588 22.6514 42.4295 22.9395 43.9561 23.5447C45.5116 24.1499 46.923 25.072 48.104 26.2247C49.285 27.3774 50.2356 28.7606 50.8693 30.2879C51.503 31.8152 51.8487 33.4578 51.8487 35.1292V41.0656ZM43.2072 51.872H10.8018V46.4544C10.8018 36.4836 19.7313 29.654 27.2782 30.2591C31.5413 30.3168 35.5739 32.0458 38.5696 35.1004C41.5365 38.1262 43.2072 42.2183 43.2072 46.4832V51.872ZM2.16036 35.1292C2.16036 33.4578 2.50602 31.8441 3.13972 30.3168C3.77343 28.7894 4.72399 27.4062 5.90499 26.2535C7.08598 25.1008 8.49742 24.1787 10.0241 23.5735C11.5507 22.9684 13.1926 22.6802 14.8633 22.709C16.2459 25.4755 18.5215 27.6944 21.3156 29.02C18.5215 29.9421 15.9867 31.4983 13.9127 33.6019C11.8388 35.7056 10.3121 38.2703 9.41917 41.0656H2.16036V35.1292ZM5.41531 11.355C5.41531 9.56836 5.93379 7.78169 6.94196 6.2832C7.92132 4.7847 9.33276 3.6032 10.9746 2.88277C12.6165 2.19116 14.4312 1.98944 16.2171 2.30642C17.9742 2.62341 19.6161 3.45911 20.9123 4.69825C18.6943 5.85094 16.822 7.55116 15.5258 9.68363C14.2296 11.8161 13.5095 14.2656 13.5095 16.7438C13.5095 18.0118 13.7111 19.2798 14.0279 20.5189C11.6948 20.3748 9.50559 19.3374 7.89252 17.6372C6.30825 15.937 5.41531 13.6892 5.41531 11.355ZM30.9076 6.08148C33.4136 7.00363 35.4875 8.76148 36.8414 11.038C38.1664 13.3434 38.6561 16.0234 38.1952 18.6458C37.7631 21.2681 36.4093 23.6312 34.3641 25.3602C32.3478 27.0892 29.7842 28.0402 27.1341 28.069C26.9901 28.069 26.9037 28.069 26.7309 28.069C24.1096 28.0402 21.5748 27.0604 19.5873 25.3314C17.5997 23.6023 16.2747 21.2393 15.8426 18.617C15.4106 16.0234 15.9003 13.3434 17.2253 11.0669C18.5503 8.7903 20.6242 7.03245 23.1015 6.1103C25.6075 5.18815 28.4015 5.18815 30.9076 6.08148ZM39.4338 2.16234C41.8246 2.16234 44.1002 3.08449 45.8285 4.75589C47.5279 6.42729 48.5361 8.67503 48.6225 11.0669C48.7089 13.4587 47.8448 15.7641 46.2317 17.5219C44.6187 19.2798 42.4007 20.346 40.0099 20.4901C40.3555 19.2509 40.5284 18.0118 40.5284 16.715C40.4996 14.2079 39.8083 11.7585 38.512 9.65481C37.2158 7.52234 35.3435 5.79331 33.1255 4.66944C34.7962 3.05567 37.0718 2.16234 39.4338 2.16234ZM44.5322 21.4699C46.0301 20.7206 47.3263 19.6544 48.3633 18.3288C49.4003 17.0032 50.1204 15.4759 50.4948 13.8621C50.8693 12.2195 50.8693 10.5481 50.5236 8.90557C50.178 7.26298 49.4579 5.73567 48.4209 4.41008C47.3839 3.08449 46.0877 2.01825 44.6187 1.24019C43.1208 0.490941 41.4789 0.0586825 39.8083 0.00104807C38.1376 -0.0565863 36.4669 0.260403 34.9402 0.923199C33.4136 1.58599 32.031 2.56578 30.9364 3.83374C28.3727 3.05567 25.6363 3.05567 23.0727 3.83374C21.9493 2.5946 20.5954 1.58599 19.0688 0.923199C17.5133 0.260403 15.8715 -0.0565863 14.2008 0.00104807C12.5301 0.0586825 10.8882 0.490941 9.39037 1.24019C7.92132 2.01825 6.62511 3.08449 5.58813 4.41008C4.57997 5.73567 3.85985 7.26298 3.48538 8.90557C3.13972 10.5481 3.16853 12.2195 3.51419 13.8621C3.88865 15.4759 4.60877 17.0032 5.64574 18.3288C6.68272 19.6544 7.97893 20.7206 9.47678 21.4699C6.71152 22.5073 4.32072 24.3804 2.62124 26.8011C0.921754 29.2505 0 32.1611 0 35.1292V42.1606C0 42.4488 0.115219 42.7081 0.316853 42.9387C0.518487 43.1116 0.806535 43.2269 1.09458 43.2269H8.92949C8.72786 44.2931 8.64144 45.3882 8.64144 46.4544V52.9383C8.64144 53.2264 8.75666 53.4858 8.9583 53.7163C9.15993 53.918 9.44798 54.0333 9.70722 54.0333H44.273C44.561 54.0333 44.8203 53.918 45.0507 53.7163C45.2524 53.5146 45.3676 53.2264 45.3676 52.9383V46.4544C45.3676 45.3593 45.2812 44.2931 45.0795 43.2269H52.9144C53.2025 43.2269 53.4617 43.1116 53.6922 42.9099C53.8938 42.7082 54.009 42.42 54.009 42.1318V35.1004C54.009 32.1322 53.1161 29.2217 51.4166 26.7722C49.7171 24.3516 47.3263 22.5073 44.5322 21.4699Z"
       fill="#111111"
       id="path6" />
  </g>
  <defs
     id="defs13">
    <clipPath
       id="clip0">
      <rect
         width="67"
         height="67"
         fill="white"
         id="rect10" />
    </clipPath>
  </defs>
</svg>
