<?xml version="1.0" encoding="UTF-8" standalone="no"?>
<svg
   xmlns:dc="http://purl.org/dc/elements/1.1/"
   xmlns:cc="http://creativecommons.org/ns#"
   xmlns:rdf="http://www.w3.org/1999/02/22-rdf-syntax-ns#"
   xmlns:svg="http://www.w3.org/2000/svg"
   xmlns="http://www.w3.org/2000/svg"
   xmlns:sodipodi="http://sodipodi.sourceforge.net/DTD/sodipodi-0.dtd"
   xmlns:inkscape="http://www.inkscape.org/namespaces/inkscape"
   width="67"
   height="67"
   viewBox="0 0 67 67"
   fill="none"
   version="1.1"
   id="svg21"
   sodipodi:docname="entity.svg"
   inkscape:version="0.92.5 (2060ec1f9f, 2020-04-08)">
  <metadata
     id="metadata25">
    <rdf:RDF>
      <cc:Work
         rdf:about="">
        <dc:format>image/svg+xml</dc:format>
        <dc:type
           rdf:resource="http://purl.org/dc/dcmitype/StillImage" />
      </cc:Work>
    </rdf:RDF>
  </metadata>
  <sodipodi:namedview
     pagecolor="#ffffff"
     bordercolor="#666666"
     borderopacity="1"
     objecttolerance="10"
     gridtolerance="10"
     guidetolerance="10"
     inkscape:pageopacity="0"
     inkscape:pageshadow="2"
     inkscape:window-width="1872"
     inkscape:window-height="1016"
     id="namedview23"
     showgrid="false"
     inkscape:zoom="3.5223881"
     inkscape:cx="33.5"
     inkscape:cy="33.5"
     inkscape:window-x="0"
     inkscape:window-y="27"
     inkscape:window-maximized="1"
     inkscape:current-layer="g14" />
  <g
     clip-path="url(#clip0)"
     id="g14">
    <path
       d="M36.7405 33.4569C36.7405 33.1689 36.8558 32.9098 37.0575 32.7083C37.2593 32.5067 37.5474 32.3915 37.8356 32.3915H39.9969C40.2851 32.3915 40.5444 32.5067 40.7461 32.7083C40.9479 32.9098 41.0631 33.1977 41.0631 33.4569C41.0631 33.7448 40.9479 34.0327 40.7461 34.2343C40.5444 34.4358 40.2562 34.551 39.9681 34.551H37.8068C37.5186 34.551 37.2304 34.4358 37.0287 34.2343C36.827 34.0327 36.7405 33.7448 36.7405 33.4569ZM44.2907 33.4569C44.2907 33.1689 44.4059 32.9098 44.6076 32.7083C44.8094 32.5067 45.0975 32.3915 45.3857 32.3915H47.547C47.8352 32.3915 48.0945 32.5067 48.2962 32.7083C48.498 32.9098 48.6132 33.1977 48.6132 33.4569C48.6132 33.7448 48.498 34.0327 48.2962 34.2343C48.0945 34.4358 47.8352 34.551 47.547 34.551H45.3857C45.0975 34.551 44.8094 34.4358 44.6076 34.2343C44.4059 34.0327 44.2907 33.7448 44.2907 33.4569ZM51.8696 33.4569C51.8696 33.1689 51.9849 32.9098 52.1866 32.7083C52.3883 32.5067 52.6765 32.3915 52.9646 32.3915H55.1259C55.4141 32.3915 55.6735 32.5067 55.8752 32.7083C56.0769 32.9098 56.1922 33.1977 56.1922 33.4569C56.1922 33.7448 56.0769 34.0327 55.8752 34.2343C55.6735 34.4358 55.3853 34.551 55.0971 34.551H52.9358C52.6476 34.551 52.3595 34.4358 52.1578 34.2343C51.956 34.0327 51.8696 33.7448 51.8696 33.4569ZM32.418 33.4569C32.418 36.2209 33.2537 38.9562 34.781 41.2596C36.3083 43.563 38.5272 45.3769 41.0919 46.4422C43.6567 47.5076 46.4808 47.7667 49.2184 47.2484C51.956 46.7014 54.4343 45.3769 56.4227 43.419C58.3823 41.4612 59.7367 38.9562 60.2554 36.2209C60.8029 33.4856 60.5147 30.664 59.4485 28.1015C58.3823 25.5389 56.5956 23.3507 54.2614 21.7959C51.956 20.2411 49.2472 19.4349 46.452 19.4349C42.7345 19.4349 39.1612 20.9321 36.51 23.5523C33.9165 26.1724 32.418 29.7426 32.418 33.4569Z"
       fill="#F6BE00"
       id="path2"
       style="fill:#3640f5;fill-opacity:1" />
    <path
       d="M30.2562 33.4577C30.2562 30.2617 31.2071 27.1234 32.9938 24.4745C34.7805 21.8256 37.3164 19.7237 40.2557 18.5144C43.2239 17.2764 46.4803 16.9596 49.6213 17.5931C52.7624 18.2265 55.6441 19.7525 57.9207 22.0271C60.1973 24.3017 61.7246 27.181 62.3585 30.3193C62.9925 33.4577 62.6755 36.7112 61.4364 39.6769C60.1972 42.6425 58.1224 45.1762 55.4712 46.9326C52.7912 48.7177 49.679 49.6678 46.4803 49.6678C42.1865 49.6678 38.0656 47.9691 35.011 44.9171C31.9564 41.8939 30.2562 37.7766 30.2562 33.4577ZM25.9336 33.4577C25.9336 37.5174 27.1439 41.4908 29.3917 44.8595C31.6394 48.2282 34.8669 50.8771 38.6132 52.4031C42.3594 53.9579 46.5091 54.361 50.4859 53.5548C54.4626 52.7486 58.1224 50.8195 61.0041 47.9403C63.8858 45.0611 65.8166 41.4044 66.6235 37.4311C67.4016 33.4577 66.9981 29.3116 65.4708 25.5686C63.9147 21.8256 61.2923 18.6296 57.9207 16.355C54.5491 14.1092 50.5723 12.8999 46.5091 12.8999C41.0626 12.8999 35.8467 15.0593 31.9852 18.9175C28.0949 22.8045 25.9336 28.0447 25.9336 33.4577Z"
       fill="#F6BE00"
       id="path4"
       style="fill:#3640f5;fill-opacity:1" />
    <path
       d="M14.2357 59.5721L27.6646 46.1548C29.2783 48.5446 31.3532 50.6176 33.7738 52.2588L20.345 65.6761C19.9416 66.0792 19.4805 66.4247 18.933 66.655C18.4142 66.8853 17.8379 67.0005 17.2616 67.0005C16.6852 67.0005 16.1089 66.8853 15.5902 66.6838C15.0714 66.4822 14.5816 66.1367 14.1781 65.7336C13.7747 65.3305 13.4577 64.8411 13.2271 64.3228C12.9966 63.8046 12.9102 63.2287 12.9102 62.6529C12.9102 62.077 13.0254 61.5012 13.256 60.9829C13.4865 60.4358 13.8323 59.9752 14.2357 59.5721Z"
       fill="#F6BE00"
       id="path6"
       style="fill:#3640f5;fill-opacity:1" />
    <path
       d="M5.12561 5.06747C6.07658 7.31328 6.56647 9.73184 6.56647 12.1792C6.53766 14.6266 6.01895 17.0451 5.03916 19.2621C4.23228 20.9897 3.56948 22.8036 3.02196 24.6175C2.04217 28.159 1.754 30.6352 3.05077 34.3782C4.05938 37.4878 5.78841 40.3094 8.1226 42.6128C10.4568 44.8874 13.3385 46.5574 16.4796 47.4787C19.5054 48.3425 22.3295 49.7245 24.8654 51.5673C27.4013 49.6957 30.2254 48.3137 33.2512 47.4787C36.3923 46.5574 39.2452 44.8874 41.6082 42.6128C43.9424 40.3382 45.7002 37.5165 46.7088 34.407C48.0056 30.6352 47.7174 28.1014 46.7088 24.5024C46.1901 22.7172 45.5273 20.9897 44.7493 19.3197C43.7407 17.0739 43.222 14.6553 43.1931 12.1792C43.1643 9.70305 43.6542 7.28449 44.634 5.03868L34.6344 2.24581C31.8392 4.40524 28.4099 5.58573 24.8942 5.58573C21.3497 5.58573 17.9205 4.40524 15.154 2.24581L5.12561 5.06747ZM24.2314 53.7843C21.7531 51.8264 18.9002 50.4156 15.8744 49.5518C12.3875 48.544 9.21766 46.7013 6.62411 44.1676C4.03056 41.6339 2.09981 38.5243 1.00475 35.0692C-0.464925 30.8367 -0.147935 27.9287 0.947118 24.0705C1.52346 22.1414 2.24389 20.2411 3.07959 18.4272C4.03056 16.2965 4.52045 13.9355 4.434 11.6034C4.34755 9.21358 3.74239 6.91018 2.64733 4.83713C2.5897 4.69317 2.53206 4.5492 2.53206 4.37645C2.53206 4.23249 2.56088 4.05973 2.61852 3.91577C2.67615 3.77181 2.79142 3.65664 2.90669 3.54147C3.02196 3.4263 3.16604 3.36872 3.31013 3.31113L15.0387 0.0287924C15.2404 0 15.4134 0 15.5863 0.0287924C15.7592 0.0575849 15.9032 0.143962 16.0473 0.259132C18.5256 2.30339 21.6379 3.4263 24.8654 3.4263C28.0929 3.4263 31.234 2.3034 33.7123 0.230339C33.8564 0.11517 34.0005 0.0575849 34.1734 0C34.3463 0 34.5192 0 34.6921 0.0287924L46.4207 3.31113C46.5648 3.33992 46.7088 3.4263 46.8529 3.54147C46.9682 3.65664 47.0835 3.77181 47.1411 3.91577C47.1987 4.05973 47.2275 4.23249 47.2275 4.37645C47.2275 4.52041 47.1987 4.69317 47.1123 4.83713C46.0172 6.93898 45.4121 9.24237 45.3544 11.6034C45.2968 13.9643 45.7579 16.2965 46.7377 18.456C47.5445 20.2411 48.265 22.055 48.8125 23.9265C49.9076 27.8711 50.2534 30.8079 48.7837 35.0692C47.6886 38.5243 45.7579 41.6339 43.1643 44.1388C40.5708 46.6725 37.4009 48.5153 33.914 49.523C30.8306 50.3868 27.9777 51.8264 25.4994 53.7843C25.3265 53.9282 25.0959 53.9858 24.8654 53.9858C24.6349 53.9858 24.4331 53.8994 24.2314 53.7843Z"
       fill="#111111"
       id="path8" />
    <path
       d="M19.7961 26.0852L21.9286 28.1582C22.0438 28.2734 22.1591 28.4462 22.2167 28.5901C22.2744 28.7629 22.2744 28.9356 22.2455 29.1084L21.7268 32.0452L24.3492 30.6632C24.4933 30.5768 24.6662 30.548 24.8391 30.548C25.012 30.548 25.1849 30.5768 25.329 30.6632L27.9514 32.0452L27.4615 29.1372C27.4326 28.9644 27.4326 28.7917 27.4903 28.6189C27.5479 28.4462 27.6344 28.3022 27.7496 28.187L29.8821 26.114L27.0004 25.6533C26.8275 25.6245 26.6546 25.5669 26.5105 25.4518C26.3664 25.3654 26.2511 25.2214 26.1935 25.0775L24.8679 22.4286L23.5711 25.0775C23.4847 25.2214 23.3694 25.3654 23.2253 25.4806C23.0812 25.5669 22.9083 25.6245 22.7354 25.6533L19.7961 26.0852ZM19.2486 33.8304L20.0266 29.3099L16.7415 26.114C16.5974 25.97 16.5109 25.7973 16.4533 25.5957C16.3957 25.3942 16.4245 25.1926 16.4821 25.0199C16.5397 24.8183 16.655 24.6744 16.7991 24.5304C16.9432 24.3864 17.1449 24.3289 17.3466 24.3001L21.8709 23.609L23.8881 19.4917C23.9746 19.319 24.1187 19.175 24.2916 19.0598C24.4645 18.9447 24.6662 18.8871 24.8679 18.8871C25.0696 18.8871 25.2714 18.9447 25.4443 19.0598C25.6172 19.175 25.7612 19.319 25.8477 19.4917L27.8649 23.609L32.3892 24.2713C32.5909 24.3001 32.7638 24.3864 32.9367 24.5016C33.0808 24.6168 33.1961 24.7895 33.2825 24.9911C33.3402 25.1926 33.3402 25.3942 33.3114 25.5669C33.2537 25.7685 33.1673 25.9412 33.0232 26.0852L29.738 29.2812L30.5161 33.8016C30.5449 34.0031 30.5161 34.2047 30.4585 34.4062C30.372 34.579 30.2567 34.7517 30.0838 34.8669C29.9109 34.9821 29.738 35.0684 29.5363 35.0684C29.3346 35.0972 29.1329 35.0396 28.96 34.9533L24.8679 32.8226L20.8047 34.9533C20.6318 35.0396 20.4301 35.0972 20.2283 35.0684C20.0266 35.0396 19.8249 34.9821 19.6808 34.8669C19.5079 34.7517 19.3926 34.579 19.3062 34.4062C19.2197 34.2335 19.2197 34.0319 19.2486 33.8304Z"
       fill="#111111"
       id="path10" />
    <path
       d="M24.8673 14.0221C22.3026 14.0221 19.7955 14.7707 17.663 16.2103C15.5305 17.6212 13.8591 19.6654 12.8794 22.0264C11.8996 24.3874 11.6402 27.0075 12.1301 29.5124C12.62 32.0174 13.8591 34.3496 15.6746 36.1347C17.4901 37.9486 19.7955 39.1867 22.3026 39.6762C24.8097 40.1656 27.432 39.9065 29.7951 38.9276C32.1581 37.9486 34.2041 36.2787 35.6161 34.148C37.0282 32.0174 37.8062 29.5124 37.8062 26.9499C37.8062 23.5236 36.423 20.2125 34.0024 17.7939C31.6105 15.4041 28.2966 14.0509 24.8673 14.0221ZM24.8673 42.0947C21.8703 42.0947 18.9598 41.2022 16.4527 39.561C13.9744 37.891 12.0148 35.5301 10.891 32.766C9.73828 30.0019 9.45011 26.9499 10.0265 24.0419C10.6028 21.105 12.0437 18.4273 14.1761 16.2967C16.2798 14.1949 18.9886 12.7552 21.928 12.1506C24.8673 11.5747 27.8931 11.8627 30.6596 13.0144C33.426 14.1661 35.789 16.0952 37.4604 18.5713C39.1318 21.0475 40.0252 23.9843 40.0252 26.9787C40.0252 30.9808 38.4114 34.839 35.5873 37.6607C32.7344 40.5111 28.8729 42.0947 24.8673 42.0947Z"
       fill="#111111"
       id="path12" />
  </g>
  <defs
     id="defs19">
    <clipPath
       id="clip0">
      <rect
         width="67"
         height="67"
         fill="white"
         id="rect16" />
    </clipPath>
  </defs>
</svg>
