<?xml version="1.0" encoding="UTF-8" standalone="no"?>
<svg
   xmlns:dc="http://purl.org/dc/elements/1.1/"
   xmlns:cc="http://creativecommons.org/ns#"
   xmlns:rdf="http://www.w3.org/1999/02/22-rdf-syntax-ns#"
   xmlns:svg="http://www.w3.org/2000/svg"
   xmlns="http://www.w3.org/2000/svg"
   xmlns:sodipodi="http://sodipodi.sourceforge.net/DTD/sodipodi-0.dtd"
   xmlns:inkscape="http://www.inkscape.org/namespaces/inkscape"
   width="67"
   height="66"
   viewBox="0 0 67 66"
   fill="none"
   version="1.1"
   id="svg21"
   sodipodi:docname="geo.svg"
   inkscape:version="0.92.5 (2060ec1f9f, 2020-04-08)">
  <metadata
     id="metadata25">
    <rdf:RDF>
      <cc:Work
         rdf:about="">
        <dc:format>image/svg+xml</dc:format>
        <dc:type
           rdf:resource="http://purl.org/dc/dcmitype/StillImage" />
      </cc:Work>
    </rdf:RDF>
  </metadata>
  <sodipodi:namedview
     pagecolor="#ffffff"
     bordercolor="#666666"
     borderopacity="1"
     objecttolerance="10"
     gridtolerance="10"
     guidetolerance="10"
     inkscape:pageopacity="0"
     inkscape:pageshadow="2"
     inkscape:window-width="1872"
     inkscape:window-height="1016"
     id="namedview23"
     showgrid="false"
     inkscape:zoom="3.5757576"
     inkscape:cx="33.5"
     inkscape:cy="33"
     inkscape:window-x="0"
     inkscape:window-y="27"
     inkscape:window-maximized="1"
     inkscape:current-layer="g14" />
  <g
     clip-path="url(#clip0)"
     id="g14">
    <path
       d="M40.6898 37.5452C40.6034 37.8338 40.6034 38.1512 40.6898 38.4687C40.7763 38.7573 40.9492 39.0459 41.1509 39.2479C41.4391 39.4499 41.7273 39.6519 42.0154 39.7962V35.8425C41.6696 35.9868 41.3526 36.2177 41.1221 36.5063C40.9204 36.8237 40.7763 37.17 40.6898 37.5452Z"
       fill="#F6BE00"
       id="path2" />
    <path
       d="M60.5123 43.2879C60.2241 43.2879 59.936 43.1724 59.7343 42.9704C59.5325 42.7684 59.4173 42.4798 59.4173 42.1912C59.4173 37.8913 57.6882 33.7645 54.6624 30.7055C51.6366 27.7041 47.5158 25.9726 43.222 25.9726C42.9338 25.9726 42.6457 25.8572 42.4439 25.6552C42.2422 25.4532 42.1269 25.1646 42.1269 24.876C42.1269 24.5874 42.2422 24.3277 42.4439 24.1257C42.6457 23.9236 42.9338 23.8082 43.222 23.8082C48.0921 23.8082 52.7605 25.7417 56.2186 29.2048C59.6766 32.6678 61.6074 37.343 61.6074 42.2201C61.6074 42.5087 61.4921 42.7973 61.2904 42.9993C61.0598 43.1724 60.8005 43.2879 60.5123 43.2879ZM48.3226 46.4046C48.1497 47.4435 47.6599 48.4247 46.9394 49.2039C46.219 49.9831 45.2392 50.5026 44.2018 50.7334V51.9455C44.2018 52.2341 44.0865 52.5227 43.8848 52.7247C43.6831 52.9267 43.3949 53.0421 43.1067 53.0421C42.8186 53.0421 42.5304 52.9267 42.3287 52.7247C42.1269 52.5227 42.0117 52.2341 42.0117 51.9455V50.7912C40.7437 50.7334 39.5334 50.3006 38.496 49.5502C38.2654 49.4059 38.0925 49.1462 38.0349 48.8576C37.9773 48.569 38.0349 48.2804 38.179 48.0496C38.3231 47.8187 38.5824 47.6455 38.8706 47.5878C39.1588 47.5301 39.4469 47.5878 39.6775 47.7321C40.3403 48.2516 41.1472 48.5402 42.0117 48.6267V42.1912C41.2336 41.8738 40.4844 41.4409 39.7928 40.9215C39.2452 40.4597 38.8418 39.8537 38.6401 39.1899C38.4095 38.5262 38.3807 37.8047 38.5536 37.1121C38.6977 36.3041 39.0435 35.5826 39.5622 34.9765C40.0809 34.3705 40.7725 33.9376 41.5506 33.6779C41.7235 33.6202 41.8676 33.5913 42.0405 33.5625V32.437C42.0405 32.1484 42.1558 31.8887 42.3575 31.6867C42.5592 31.4846 42.8474 31.3692 43.1355 31.3692C43.4237 31.3692 43.7119 31.4846 43.8848 31.6867C44.0865 31.8887 44.2018 32.1772 44.2018 32.437V33.4759C45.2104 33.6202 46.1614 34.0531 46.9682 34.7168C47.17 34.9188 47.2852 35.1786 47.2852 35.4671C47.2852 35.7557 47.1988 36.0155 46.9971 36.2175C46.7953 36.4195 46.536 36.5638 46.2766 36.5638C45.9885 36.5926 45.7291 36.4772 45.4986 36.3041C45.1239 36.0155 44.6629 35.7846 44.2018 35.698V40.7483C44.49 40.8637 44.8069 40.9792 45.1528 41.0946C46.2478 41.4409 47.17 42.1624 47.7463 43.1436C48.3226 44.1248 48.5532 45.2791 48.3226 46.4046ZM43.222 60.6031C38.3519 60.6031 33.6835 58.6696 30.2254 55.2065C26.7674 51.7435 24.8366 47.0684 24.8366 42.1912C24.8366 41.9027 24.9519 41.6429 25.1536 41.4409C25.3553 41.2389 25.6435 41.1235 25.9317 41.1235C26.2199 41.1235 26.4792 41.2389 26.6809 41.4409C26.8826 41.6429 26.9979 41.9315 26.9979 42.1912C26.9979 46.4912 28.6981 50.618 31.7528 53.677C34.7786 56.7072 38.8994 58.4387 43.222 58.4387C43.5102 58.4387 43.7695 58.5542 43.9712 58.7562C44.173 58.9582 44.2882 59.2468 44.2882 59.5065C44.2882 59.7951 44.173 60.0837 43.9712 60.2857C43.7695 60.4877 43.5102 60.6031 43.222 60.6031ZM43.222 18.4116C38.5248 18.4116 33.914 19.7968 30.0237 22.423C26.1046 25.0203 23.05 28.7431 21.2633 33.1007C19.4766 37.4584 18.9867 42.249 19.9089 46.8664C20.831 51.4838 23.0788 55.726 26.4216 59.0448C29.7356 62.3635 33.9717 64.6434 38.6112 65.5668C43.222 66.4903 48.0057 65.9997 52.3571 64.2105C56.7085 62.4212 60.4259 59.3622 63.0194 55.4374C65.6418 51.5126 67.025 46.9241 67.025 42.2201C67.025 35.9 64.5179 29.8685 60.0512 25.3954C55.5846 20.9223 49.533 18.4116 43.222 18.4116Z"
       fill="#F6BE00"
       id="path4"
       style="fill:#3640f5;fill-opacity:1" />
    <path
       d="M44.4376 43.1437C44.3511 43.1148 44.2935 43.086 44.207 43.0571V48.4537C44.7257 48.2517 45.1868 47.9343 45.5326 47.5014C45.8784 47.0685 46.109 46.5779 46.1954 46.0296C46.3107 45.4235 46.1954 44.7598 45.8784 44.2403C45.5614 43.692 45.0427 43.3169 44.4376 43.1437Z"
       fill="#F6BE00"
       id="path6"
       style="fill:#3640f5;fill-opacity:1" />
    <path
       d="M27.0286 0C26.7405 0 26.4523 0.115435 26.2506 0.317446C26.0489 0.519458 25.9336 0.808045 25.9336 1.09663C25.9336 1.38522 26.0489 1.67381 26.2506 1.87582C26.4523 2.07783 26.7405 2.19327 27.0286 2.19327C33.6278 2.19327 39.9388 4.81941 44.6071 9.49453C49.2755 14.1697 51.8691 20.4609 51.8691 27.0695C51.8691 27.3581 51.9843 27.6467 52.1861 27.8487C52.3878 28.0507 52.676 28.1662 52.9641 28.1662C53.2523 28.1662 53.5117 28.0507 53.7134 27.8487C53.9151 27.6467 54.0304 27.3581 54.0304 27.0695C54.0304 19.8837 51.1775 13.0153 46.1056 7.93616C41.0338 2.85702 34.1753 0 27.0286 0Z"
       fill="#111111"
       id="path8" />
    <path
       d="M1.09505 25.9729C0.806882 25.9729 0.51871 26.0883 0.316989 26.2903C0.115269 26.4924 0 26.7809 0 27.0695C0 34.2554 2.8529 41.1238 7.92473 46.2029C12.9966 51.282 19.8551 54.1391 27.0305 54.1391C27.3187 54.1391 27.5781 54.0236 27.7798 53.8216C27.9815 53.6196 28.0968 53.331 28.0968 53.0424C28.0968 52.7538 27.9815 52.4941 27.7798 52.2921C27.5781 52.0612 27.2899 51.9458 27.0305 51.9458C20.4314 51.9458 14.1204 49.3196 9.45204 44.6445C4.78366 39.9694 2.16129 33.6493 2.16129 27.0407C2.16129 26.7521 2.04602 26.4924 1.8443 26.2903C1.64258 26.0883 1.35441 25.9729 1.09505 25.9729Z"
       fill="#111111"
       id="path10" />
    <path
       d="M21.2364 9.61032C19.6802 11.5727 18.4987 13.8237 17.7783 16.2478H12.1877C14.4355 13.1311 17.6054 10.8224 21.2364 9.61032ZM41.8407 16.219H36.2501C35.5297 13.7948 34.377 11.5439 32.7921 9.58146C36.423 10.8224 39.5929 13.1311 41.8407 16.219ZM32.7921 44.5006C34.377 42.5382 35.5297 40.2872 36.2501 37.8631H41.8407C39.5929 40.9798 36.423 43.2885 32.7921 44.5006ZM12.1877 37.8631H17.7783C18.4987 40.2872 19.6514 42.5382 21.2364 44.5006C17.6054 43.2885 14.4355 40.9798 12.1877 37.8631ZM16.2222 28.1376C16.2798 30.6772 16.5968 33.2168 17.1731 35.6986H10.8045C9.56538 33.3611 8.84495 30.7638 8.70087 28.1376H16.2222ZM19.4209 35.6986C18.7869 33.2168 18.4411 30.6772 18.3834 28.1376H35.6161C35.5585 30.7061 35.2127 33.2456 34.5787 35.6986H19.4209ZM27.0286 45.4529C24.2333 45.4529 21.6974 42.4227 20.1125 37.8919H33.9736C32.3598 42.4227 29.8239 45.4529 27.0286 45.4529ZM43.2239 35.6986H36.8553C37.4316 33.2168 37.7486 30.6772 37.8062 28.1376H45.3564C45.1834 30.7927 44.463 33.3611 43.2239 35.6986ZM45.3275 25.9732H37.7774C37.7198 23.4337 37.4028 20.8941 36.8265 18.4122H43.2239C44.463 20.7498 45.1834 23.3182 45.3275 25.9732ZM34.6075 18.3834C35.2415 20.8652 35.5873 23.4048 35.645 25.9444H18.3834C18.4411 23.376 18.7869 20.8364 19.4209 18.3834H34.6075ZM27.0286 8.65798C29.8239 8.65798 32.3598 11.6882 33.9447 16.219H20.0837C21.6686 11.6882 24.2045 8.65798 27.0286 8.65798ZM10.8045 18.3834H17.1731C16.5968 20.8941 16.2798 23.4337 16.2222 25.9732H8.70087C8.84495 23.3182 9.56538 20.7498 10.8045 18.3834ZM27.0286 47.6173C31.0918 47.6173 35.0686 46.4052 38.4402 44.1543C41.8118 41.9033 44.463 38.6711 45.9903 34.9195C47.5465 31.1678 47.9499 27.041 47.143 23.0296C46.365 19.0471 44.4054 15.3821 41.5237 12.4962C38.6419 9.61032 34.9822 7.64793 31.0054 6.86874C27.0286 6.08955 22.8789 6.49358 19.1327 8.02309C15.3865 9.58146 12.1877 12.2076 9.91119 15.5841C7.66345 18.9606 6.45312 22.9431 6.45312 27.0122C6.45312 32.4665 8.61442 37.6899 12.4759 41.557C16.3374 45.424 21.5822 47.6173 27.0286 47.6173Z"
       fill="#111111"
       id="path12" />
  </g>
  <defs
     id="defs19">
    <clipPath
       id="clip0">
      <rect
         width="67"
         height="66"
         fill="white"
         id="rect16" />
    </clipPath>
  </defs>
</svg>
