<?xml version="1.0" encoding="UTF-8" standalone="no"?>
<svg
   xmlns:dc="http://purl.org/dc/elements/1.1/"
   xmlns:cc="http://creativecommons.org/ns#"
   xmlns:rdf="http://www.w3.org/1999/02/22-rdf-syntax-ns#"
   xmlns:svg="http://www.w3.org/2000/svg"
   xmlns="http://www.w3.org/2000/svg"
   xmlns:sodipodi="http://sodipodi.sourceforge.net/DTD/sodipodi-0.dtd"
   xmlns:inkscape="http://www.inkscape.org/namespaces/inkscape"
   width="240"
   height="280"
   fill="none"
   version="1.1"
   id="svg134"
   sodipodi:docname="img_ContiLeaks_row_2_icon_2.svg"
   inkscape:version="0.92.5 (2060ec1f9f, 2020-04-08)">
  <metadata
     id="metadata138">
    <rdf:RDF>
      <cc:Work
         rdf:about="">
        <dc:format>image/svg+xml</dc:format>
        <dc:type
           rdf:resource="http://purl.org/dc/dcmitype/StillImage" />
      </cc:Work>
    </rdf:RDF>
  </metadata>
  <sodipodi:namedview
     pagecolor="#ffffff"
     bordercolor="#666666"
     borderopacity="1"
     objecttolerance="10"
     gridtolerance="10"
     guidetolerance="10"
     inkscape:pageopacity="0"
     inkscape:pageshadow="2"
     inkscape:window-width="1872"
     inkscape:window-height="1016"
     id="namedview136"
     showgrid="false"
     inkscape:zoom="2.38396"
     inkscape:cx="156.2328"
     inkscape:cy="191.7989"
     inkscape:window-x="0"
     inkscape:window-y="27"
     inkscape:window-maximized="1"
     inkscape:current-layer="g56" />
  <g
     clip-path="url(#a)"
     id="g56">
    <path
       fill-rule="evenodd"
       clip-rule="evenodd"
       d="M230.754 116.694h-29.723v-1.413h29.723a4.242 4.242 0 0 1 4.246 4.238v43.434a4.242 4.242 0 0 1-4.246 4.238h-.708a2.828 2.828 0 0 0-2.831 2.825v35.665a4.242 4.242 0 0 1-4.246 4.238h-3.538v-1.413h3.538a2.828 2.828 0 0 0 2.831-2.825v-35.665a4.242 4.242 0 0 1 4.246-4.238h.708a2.828 2.828 0 0 0 2.831-2.825v-43.434a2.828 2.828 0 0 0-2.831-2.825Z"
       fill="#A3BACA"
       id="path2" />
    <path
       fill-rule="evenodd"
       clip-rule="evenodd"
       d="m219.135 211.942-3.637-2.175a.644.644 0 0 1 0-1.109l3.637-2.175a.67.67 0 0 1 .723.022.643.643 0 0 1 .267.661l-.389 1.921a.573.573 0 0 0 0 .254l.389 1.921a.638.638 0 0 1-.269.659.668.668 0 0 1-.721.021Z"
       fill="#A3BACA"
       id="path4" />
    <path
       d="M19 35.475C19 30.795 22.661 27 27.178 27h132.644c4.517 0 8.178 3.794 8.178 8.475v209.05c0 4.681-3.661 8.475-8.178 8.475H27.178C22.66 253 19 249.206 19 244.525V35.475Z"
       fill="#fff"
       id="path6" />
    <g
       filter="url(#b)"
       id="g10"
       style="fill:#3640f5;fill-opacity:1">
      <path
         d="M52.415 48.793c0-3.12 2.535-5.65 5.662-5.65h132.055a5.655 5.655 0 0 1 5.661 5.65v183.116c0 3.12-2.534 5.65-5.661 5.65H58.077a5.656 5.656 0 0 1-5.662-5.65V48.793Z"
         fill="#F9BE00"
         id="path8"
         style="fill:#3640f5;fill-opacity:1" />
    </g>
    <path
       fill-rule="evenodd"
       clip-rule="evenodd"
       d="M178.945 60.222a.941.941 0 0 1-.946-.936c0-.517.424-.936.946-.936.523 0 .947.419.947.936a.941.941 0 0 1-.947.936Zm-3.312 0a.94.94 0 0 1-.946-.936.94.94 0 0 1 .946-.936.94.94 0 0 1 .946.936.94.94 0 0 1-.946.936Zm6.625 0a.941.941 0 0 1-.947-.936c0-.517.424-.936.947-.936.522 0 .946.419.946.936a.941.941 0 0 1-.946.936Z"
       fill="#1F323F"
       id="path12"
       style="fill:#ffffff;fill-opacity:0.94117647" />
    <path
       opacity=".3"
       fill-rule="evenodd"
       clip-rule="evenodd"
       d="M184.624 121.752H63.959v-.353h120.665v.353Zm0 23.864H63.959v-.354h120.665v.354Zm0 21.056H63.959v-.354h120.665v.354Zm0 23.863H63.959v-.354h120.665v.354Z"
       fill="#fff"
       id="path14" />
    <path
       opacity=".5"
       d="M63.739 111.397a3.888 3.888 0 0 1 3.892-3.884h9.2a3.888 3.888 0 0 1 3.892 3.884 3.888 3.888 0 0 1-3.892 3.884h-9.2a3.888 3.888 0 0 1-3.892-3.884Zm0 25.425a3.888 3.888 0 0 1 3.892-3.884h9.2a3.888 3.888 0 0 1 3.892 3.884 3.888 3.888 0 0 1-3.892 3.884h-9.2a3.888 3.888 0 0 1-3.892-3.884Zm0 21.187a3.888 3.888 0 0 1 3.892-3.884h9.2a3.888 3.888 0 0 1 3.892 3.884 3.888 3.888 0 0 1-3.892 3.885h-9.2a3.888 3.888 0 0 1-3.892-3.885ZM87.8 111.397a3.888 3.888 0 0 1 3.892-3.884H120a3.888 3.888 0 0 1 3.892 3.884 3.888 3.888 0 0 1-3.892 3.884H91.692a3.888 3.888 0 0 1-3.892-3.884Zm41.754 0a3.888 3.888 0 0 1 3.892-3.884h36.093a3.888 3.888 0 0 1 3.892 3.884 3.888 3.888 0 0 1-3.892 3.884h-36.093a3.888 3.888 0 0 1-3.892-3.884ZM87.8 136.822a3.888 3.888 0 0 1 3.892-3.884h89.17a3.888 3.888 0 0 1 3.892 3.884 3.888 3.888 0 0 1-3.892 3.884h-89.17a3.888 3.888 0 0 1-3.892-3.884Z"
       fill="#fff"
       id="path18" />
    <path
       d="M110.446 76.79a3.889 3.889 0 0 1 3.892-3.884h19.108c2.15 0 3.892 1.74 3.892 3.885a3.888 3.888 0 0 1-3.892 3.884h-19.108a3.889 3.889 0 0 1-3.892-3.884Z"
       fill="#fff"
       id="path20" />
    <path
       opacity=".5"
       d="M87.8 158.009a3.888 3.888 0 0 1 3.892-3.884h84.923a3.889 3.889 0 0 1 3.893 3.884 3.889 3.889 0 0 1-3.893 3.885H91.692a3.888 3.888 0 0 1-3.892-3.885Zm-24.061 24.013a3.89 3.89 0 0 1 3.892-3.885h108.984a3.89 3.89 0 0 1 3.893 3.885 3.889 3.889 0 0 1-3.893 3.884H67.631a3.888 3.888 0 0 1-3.892-3.884Z"
       fill="#fff"
       id="path22" />
    <path
       d="M31.892 94.8a2.828 2.828 0 0 0 2.831-2.825 2.828 2.828 0 0 0-2.83-2.825 2.828 2.828 0 0 0-2.832 2.825 2.828 2.828 0 0 0 2.831 2.825Z"
       fill="#F9BE00"
       id="path24"
       style="fill:#3640f5;fill-opacity:1" />
    <path
       d="M31.892 133.644c5.081 0 9.2-4.111 9.2-9.182 0-5.07-4.119-9.181-9.2-9.181-5.08 0-9.2 4.111-9.2 9.181 0 5.071 4.12 9.182 9.2 9.182Z"
       fill="#FE5029"
       id="path26" />
    <path
       d="M31.539 157.656a3.888 3.888 0 0 0 3.892-3.884 3.89 3.89 0 0 0-3.892-3.885 3.89 3.89 0 0 0-3.893 3.885 3.888 3.888 0 0 0 3.893 3.884Z"
       fill="#1F323F"
       id="path28" />
    <path
       fill-rule="evenodd"
       clip-rule="evenodd"
       d="M31.892 83.456c-4.714 0-8.536 3.814-8.536 8.519s3.822 8.519 8.536 8.519c4.715 0 8.537-3.814 8.537-8.52 0-4.704-3.822-8.518-8.537-8.518Zm-9.2 8.519c0-5.07 4.12-9.181 9.2-9.181 5.081 0 9.2 4.11 9.2 9.18 0 5.072-4.119 9.182-9.2 9.182-5.08 0-9.2-4.11-9.2-9.181Z"
       fill="#616161"
       id="path30" />
    <g
       filter="url(#c)"
       id="g34">
      <path
         d="M167.769 90.987c0-2.575 2.3-4.662 5.137-4.662h47.049c2.837 0 5.137 2.087 5.137 4.662v48.589c0 2.574-2.3 4.662-5.137 4.662h-47.049c-2.837 0-5.137-2.088-5.137-4.662V90.987Z"
         fill="#8AD3A1"
         id="path32" />
    </g>
    <g
       filter="url(#d)"
       id="g38">
      <path
         fill-rule="evenodd"
         clip-rule="evenodd"
         d="M172.906 87.738c-2.185 0-3.722 1.578-3.722 3.25v48.588c0 1.671 1.537 3.249 3.722 3.249h47.049c2.185 0 3.722-1.578 3.722-3.249V90.987c0-1.671-1.537-3.25-3.722-3.25h-47.049Zm0-1.413c-2.837 0-5.137 2.087-5.137 4.662v48.589c0 2.574 2.3 4.662 5.137 4.662h47.049c2.837 0 5.137-2.088 5.137-4.662V90.987c0-2.575-2.3-4.662-5.137-4.662h-47.049Z"
         fill="#fff"
         id="path36" />
    </g>
    <path
       d="M206.61 116.015a12.079 12.079 0 0 0-4.525-4.664 12.588 12.588 0 0 0-6.362-1.72c-2.243 0-4.443.595-6.362 1.72a12.079 12.079 0 0 0-4.525 4.664.686.686 0 0 0 0 .652 12.076 12.076 0 0 0 4.525 4.663 12.588 12.588 0 0 0 6.362 1.72c2.243 0 4.443-.595 6.362-1.72a12.076 12.076 0 0 0 4.525-4.663.692.692 0 0 0 0-.652Zm-10.887 5.617a11.068 11.068 0 0 1-5.438-1.417 10.628 10.628 0 0 1-3.962-3.876 10.654 10.654 0 0 1 3.965-3.877 11.086 11.086 0 0 1 5.438-1.42c1.91 0 3.786.49 5.438 1.42a10.658 10.658 0 0 1 3.964 3.877 10.639 10.639 0 0 1-3.964 3.878 11.066 11.066 0 0 1-5.441 1.415Zm0-8.836c-.846 0-1.665.284-2.319.804a3.526 3.526 0 0 0-1.267 2.048 3.45 3.45 0 0 0 .361 2.361 3.62 3.62 0 0 0 1.826 1.604 3.768 3.768 0 0 0 2.46.117 3.651 3.651 0 0 0 1.979-1.422c.47-.682.681-1.5.599-2.316a3.504 3.504 0 0 0-1.054-2.159 3.655 3.655 0 0 0-1.186-.768 3.756 3.756 0 0 0-1.399-.269Zm0 5.668a2.24 2.24 0 0 1-1.392-.482 2.116 2.116 0 0 1-.76-1.229 2.07 2.07 0 0 1 .217-1.417 2.167 2.167 0 0 1 1.095-.962 2.261 2.261 0 0 1 1.477-.07c.485.142.905.444 1.187.853a2.075 2.075 0 0 1-.273 2.685 2.2 2.2 0 0 1-.711.461 2.273 2.273 0 0 1-.84.161Z"
       fill="#1F323F"
       id="path40" />
    <path
       d="M195.723 213.45a3.888 3.888 0 0 0 3.892-3.884 3.888 3.888 0 0 0-3.892-3.885 3.888 3.888 0 0 0-3.892 3.885 3.888 3.888 0 0 0 3.892 3.884Z"
       fill="#5275EC"
       id="path42"
       style="fill:#365079;fill-opacity:1" />
    <path
       fill-rule="evenodd"
       clip-rule="evenodd"
       d="M195.723 192.856c-9.247 0-16.744 7.481-16.744 16.71 0 9.228 7.497 16.71 16.744 16.71 9.248 0 16.744-7.482 16.744-16.71 0-9.229-7.496-16.71-16.744-16.71Zm-18.046 16.71c0-9.947 8.08-18.01 18.046-18.01 9.967 0 18.046 8.063 18.046 18.01 0 9.946-8.079 18.009-18.046 18.009-9.966 0-18.046-8.063-18.046-18.009Z"
       fill="#1F323F"
       id="path44"
       style="fill:#365079;fill-opacity:1" />
    <g
       filter="url(#e)"
       id="g48">
      <path
         d="M5 187.319a5.655 5.655 0 0 1 5.662-5.65h96.953a5.656 5.656 0 0 1 5.662 5.65v21.893a5.656 5.656 0 0 1-5.662 5.65H10.662A5.655 5.655 0 0 1 5 209.212v-21.893Z"
         fill="#FE5029"
         id="path46" />
    </g>
    <path
       d="M27.09 207.213c1.506 0 2.318-.782 2.318-2.235v-2.492c0-1.453-.812-2.234-2.318-2.234s-2.319.781-2.319 2.234v2.492c0 1.453.813 2.235 2.319 2.235Zm0-.791c-.971 0-1.447-.495-1.447-1.503v-2.373c0-1.009.476-1.503 1.447-1.503.97 0 1.446.494 1.446 1.503v2.373c0 1.008-.475 1.503-1.446 1.503Zm3.642.672h4.627v-.821h-3.765c.04-.722.485-1.157 1.724-1.71 1.496-.673 2.06-1.325 2.06-2.393 0-1.177-.773-1.918-2.239-1.918-1.466 0-2.308.721-2.308 2.046v.228h.852v-.139c0-.899.505-1.344 1.446-1.344.932 0 1.377.445 1.377 1.147s-.416 1.147-1.605 1.69c-1.575.722-2.17 1.464-2.17 2.71v.504Zm6.168 0h1.01v-1.009H36.9v1.009Zm2.55 0h4.626v-.821h-3.765c.04-.722.486-1.157 1.724-1.71 1.496-.673 2.06-1.325 2.06-2.393 0-1.177-.772-1.918-2.238-1.918-1.467 0-2.309.721-2.309 2.046v.228h.852v-.139c0-.899.506-1.344 1.447-1.344.931 0 1.377.445 1.377 1.147s-.416 1.147-1.605 1.69c-1.575.722-2.17 1.464-2.17 2.71v.504Zm6.96 0h.931c.1-2.314 1.01-4.183 2.764-5.863v-.861H45.32v.831h3.775c-1.664 1.592-2.586 3.589-2.685 5.893Zm5.167 0h1.011v-1.009h-1.01v1.009Zm2.55 0h4.627v-.821h-3.765c.04-.722.485-1.157 1.724-1.71 1.496-.673 2.06-1.325 2.06-2.393 0-1.177-.772-1.918-2.239-1.918-1.466 0-2.308.721-2.308 2.046v.228h.852v-.139c0-.899.505-1.344 1.447-1.344.93 0 1.377.445 1.377 1.147s-.416 1.147-1.605 1.69c-1.576.722-2.17 1.464-2.17 2.71v.504Zm8.278.119c1.506 0 2.319-.782 2.319-2.235v-2.492c0-1.453-.813-2.234-2.319-2.234s-2.318.781-2.318 2.234v2.492c0 1.453.812 2.235 2.318 2.235Zm0-.791c-.97 0-1.446-.495-1.446-1.503v-2.373c0-1.009.475-1.503 1.446-1.503s1.447.494 1.447 1.503v2.373c0 1.008-.476 1.503-1.447 1.503Zm3.642.672h4.627v-.821h-3.765c.04-.722.485-1.157 1.724-1.71 1.496-.673 2.06-1.325 2.06-2.393 0-1.177-.772-1.918-2.238-1.918-1.467 0-2.309.721-2.309 2.046v.228h.852v-.139c0-.899.505-1.344 1.447-1.344.931 0 1.377.445 1.377 1.147s-.416 1.147-1.605 1.69c-1.576.722-2.17 1.464-2.17 2.71v.504Zm5.96 0h4.627v-.821H72.87c.04-.722.486-1.157 1.724-1.71 1.496-.673 2.06-1.325 2.06-2.393 0-1.177-.772-1.918-2.238-1.918-1.467 0-2.309.721-2.309 2.046v.228h.852v-.139c0-.899.506-1.344 1.447-1.344.931 0 1.377.445 1.377 1.147s-.416 1.147-1.605 1.69c-1.575.722-2.17 1.464-2.17 2.71v.504Zm-47.248-12.713h1.656c1.26 0 1.826-.586 1.826-1.864v-1.074c0-1.278-.567-1.864-1.826-1.864h-1.656v4.802Zm.637-.579v-3.644h.94c.907 0 1.268.367 1.268 1.292v1.06c0 .925-.361 1.292-1.267 1.292h-.941Zm4.857.664c.53 0 .941-.205 1.238-.579l.022.494h.53v-2.38c0-.904-.467-1.349-1.43-1.349-.912 0-1.407.403-1.471 1.194h.608c.022-.445.326-.657.843-.657.566 0 .828.261.828.826v.198h-.878c-1.026 0-1.507.41-1.507 1.137 0 .713.467 1.116 1.217 1.116Zm.092-.537c-.46 0-.686-.212-.686-.593 0-.41.268-.608.905-.608h.857v.516c-.22.445-.588.685-1.076.685Zm3.879.452h.567v-.537h-.418c-.418 0-.524-.12-.524-.593v-2.006h.899v-.508h-.899v-.961h-.559l-.05.961h-.643v.508h.63v1.999c0 .798.297 1.137.997 1.137Zm2.695.085c.878 0 1.423-.396 1.472-1.173h-.602c-.042.396-.332.636-.884.636-.651 0-.948-.325-.948-1.038v-.163h2.462v-.529c0-1.003-.545-1.547-1.542-1.547-.998 0-1.543.544-1.543 1.547v.72c0 1.003.559 1.547 1.585 1.547Zm-.962-2.253c0-.699.29-1.024.934-1.024.637 0 .927.325.927 1.024h-1.861Z"
       fill="#fff"
       id="path50" />
    <g
       clip-path="url(#f)"
       id="g54">
      <path
         d="M18.61 189.791h-.545v-.795a.26.26 0 0 0-.08-.187.275.275 0 0 0-.385 0 .26.26 0 0 0-.08.187v.795h-3.81v-.795a.26.26 0 0 0-.08-.187.275.275 0 0 0-.385 0 .26.26 0 0 0-.08.187v.795h-.544a.55.55 0 0 0-.385.155.522.522 0 0 0-.16.374v4.238c0 .14.058.275.16.374.102.1.24.155.385.155h5.988a.55.55 0 0 0 .385-.155.521.521 0 0 0 .16-.374v-4.238a.521.521 0 0 0-.16-.374.55.55 0 0 0-.385-.155Zm-5.444.529v.265c0 .07.028.138.08.187a.275.275 0 0 0 .384 0 .26.26 0 0 0 .08-.187v-.265h3.81v.265c0 .07.03.138.08.187a.275.275 0 0 0 .385 0 .26.26 0 0 0 .08-.187v-.265h.544v1.06h-5.988v-1.06h.545Zm-.545 4.238v-2.649h5.988v2.649h-5.988Z"
         fill="#fff"
         id="path52" />
    </g>
  </g>
  <defs
     id="defs132">
    <filter
       id="b"
       x="40.415"
       y="35.143"
       width="167.378"
       height="218.416"
       filterUnits="userSpaceOnUse"
       color-interpolation-filters="sRGB">
      <feFlood
         flood-opacity="0"
         result="BackgroundImageFix"
         id="feFlood58" />
      <feColorMatrix
         in="SourceAlpha"
         values="0 0 0 0 0 0 0 0 0 0 0 0 0 0 0 0 0 0 127 0"
         result="hardAlpha"
         id="feColorMatrix60" />
      <feOffset
         dy="4"
         id="feOffset62" />
      <feGaussianBlur
         stdDeviation="6"
         id="feGaussianBlur64" />
      <feComposite
         in2="hardAlpha"
         operator="out"
         id="feComposite66" />
      <feColorMatrix
         values="0 0 0 0 0.560938 0 0 0 0 0.549041 0 0 0 0 0.608529 0 0 0 0.25 0"
         id="feColorMatrix68" />
      <feBlend
         in2="BackgroundImageFix"
         result="effect1_dropShadow_13_180"
         id="feBlend70" />
      <feBlend
         in="SourceGraphic"
         in2="effect1_dropShadow_13_180"
         result="shape"
         id="feBlend72" />
    </filter>
    <filter
       id="c"
       x="155.769"
       y="78.325"
       width="81.323"
       height="81.912"
       filterUnits="userSpaceOnUse"
       color-interpolation-filters="sRGB">
      <feFlood
         flood-opacity="0"
         result="BackgroundImageFix"
         id="feFlood75" />
      <feColorMatrix
         in="SourceAlpha"
         values="0 0 0 0 0 0 0 0 0 0 0 0 0 0 0 0 0 0 127 0"
         result="hardAlpha"
         id="feColorMatrix77" />
      <feOffset
         dy="4"
         id="feOffset79" />
      <feGaussianBlur
         stdDeviation="6"
         id="feGaussianBlur81" />
      <feComposite
         in2="hardAlpha"
         operator="out"
         id="feComposite83" />
      <feColorMatrix
         values="0 0 0 0 0.560938 0 0 0 0 0.549041 0 0 0 0 0.608529 0 0 0 0.25 0"
         id="feColorMatrix85" />
      <feBlend
         in2="BackgroundImageFix"
         result="effect1_dropShadow_13_180"
         id="feBlend87" />
      <feBlend
         in="SourceGraphic"
         in2="effect1_dropShadow_13_180"
         result="shape"
         id="feBlend89" />
    </filter>
    <filter
       id="d"
       x="155.769"
       y="78.325"
       width="81.323"
       height="81.912"
       filterUnits="userSpaceOnUse"
       color-interpolation-filters="sRGB">
      <feFlood
         flood-opacity="0"
         result="BackgroundImageFix"
         id="feFlood92" />
      <feColorMatrix
         in="SourceAlpha"
         values="0 0 0 0 0 0 0 0 0 0 0 0 0 0 0 0 0 0 127 0"
         result="hardAlpha"
         id="feColorMatrix94" />
      <feOffset
         dy="4"
         id="feOffset96" />
      <feGaussianBlur
         stdDeviation="6"
         id="feGaussianBlur98" />
      <feComposite
         in2="hardAlpha"
         operator="out"
         id="feComposite100" />
      <feColorMatrix
         values="0 0 0 0 0.560938 0 0 0 0 0.549041 0 0 0 0 0.608529 0 0 0 0.25 0"
         id="feColorMatrix102" />
      <feBlend
         in2="BackgroundImageFix"
         result="effect1_dropShadow_13_180"
         id="feBlend104" />
      <feBlend
         in="SourceGraphic"
         in2="effect1_dropShadow_13_180"
         result="shape"
         id="feBlend106" />
    </filter>
    <filter
       id="e"
       x="-7"
       y="173.669"
       width="132.277"
       height="57.194"
       filterUnits="userSpaceOnUse"
       color-interpolation-filters="sRGB">
      <feFlood
         flood-opacity="0"
         result="BackgroundImageFix"
         id="feFlood109" />
      <feColorMatrix
         in="SourceAlpha"
         values="0 0 0 0 0 0 0 0 0 0 0 0 0 0 0 0 0 0 127 0"
         result="hardAlpha"
         id="feColorMatrix111" />
      <feOffset
         dy="4"
         id="feOffset113" />
      <feGaussianBlur
         stdDeviation="6"
         id="feGaussianBlur115" />
      <feComposite
         in2="hardAlpha"
         operator="out"
         id="feComposite117" />
      <feColorMatrix
         values="0 0 0 0 0.560938 0 0 0 0 0.549041 0 0 0 0 0.608529 0 0 0 0.25 0"
         id="feColorMatrix119" />
      <feBlend
         in2="BackgroundImageFix"
         result="effect1_dropShadow_13_180"
         id="feBlend121" />
      <feBlend
         in="SourceGraphic"
         in2="effect1_dropShadow_13_180"
         result="shape"
         id="feBlend123" />
    </filter>
    <clipPath
       id="a">
      <rect
         width="240"
         height="280"
         fill="#fff"
         id="rect126" />
    </clipPath>
    <clipPath
       id="f">
      <rect
         width="7.077"
         height="6.356"
         fill="#fff"
         transform="translate(12.077 188.731)"
         id="rect129" />
    </clipPath>
  </defs>
</svg>
