<?xml version="1.0" encoding="UTF-8" standalone="no"?>
<svg
   xmlns:dc="http://purl.org/dc/elements/1.1/"
   xmlns:cc="http://creativecommons.org/ns#"
   xmlns:rdf="http://www.w3.org/1999/02/22-rdf-syntax-ns#"
   xmlns:svg="http://www.w3.org/2000/svg"
   xmlns="http://www.w3.org/2000/svg"
   xmlns:sodipodi="http://sodipodi.sourceforge.net/DTD/sodipodi-0.dtd"
   xmlns:inkscape="http://www.inkscape.org/namespaces/inkscape"
   width="240"
   height="280"
   fill="none"
   version="1.1"
   id="svg120"
   sodipodi:docname="img_ContiLeaks_row_2_icon_1-1.svg"
   inkscape:version="0.92.5 (2060ec1f9f, 2020-04-08)">
  <metadata
     id="metadata124">
    <rdf:RDF>
      <cc:Work
         rdf:about="">
        <dc:format>image/svg+xml</dc:format>
        <dc:type
           rdf:resource="http://purl.org/dc/dcmitype/StillImage" />
      </cc:Work>
    </rdf:RDF>
  </metadata>
  <sodipodi:namedview
     pagecolor="#ffffff"
     bordercolor="#666666"
     borderopacity="1"
     objecttolerance="10"
     gridtolerance="10"
     guidetolerance="10"
     inkscape:pageopacity="0"
     inkscape:pageshadow="2"
     inkscape:window-width="1872"
     inkscape:window-height="1016"
     id="namedview122"
     showgrid="false"
     inkscape:zoom="1.19198"
     inkscape:cx="-161.06483"
     inkscape:cy="60.388468"
     inkscape:window-x="0"
     inkscape:window-y="27"
     inkscape:window-maximized="1"
     inkscape:current-layer="svg120" />
  <path
     d="M25 31.8c0-4.9 3.7-8.8 8.2-8.8h132.6c4.5 0 8.2 4 8.2 8.8v216.4c0 4.9-3.7 8.8-8.2 8.8H33.2c-4.5 0-8.2-4-8.2-8.8V31.8Z"
     fill="#fff"
     id="path2" />
  <g
     filter="url(#a)"
     id="g6">
    <path
       d="M44.3 43c0-3.3 2.4-6 5.5-6h129.9c3 0 5.6 2.7 5.6 6v195c0 3.3-2.5 6-5.6 6H49.8c-3 0-5.5-2.7-5.5-6V43Z"
       fill="#F6D5CF"
       id="path4" />
  </g>
  <path
     opacity=".5"
     d="M61.3 106.5c0-2.5 1.6-4.5 3.6-4.5h101.6c2 0 3.6 2 3.6 4.5s-1.6 4.5-3.6 4.5H64.9c-2 0-3.6-2-3.6-4.5ZM84 71c0-2.2 1.6-4 3.6-4h55.2c2 0 3.7 1.8 3.7 4s-1.7 4-3.7 4H87.6c-2 0-3.6-1.8-3.6-4Zm-22.7 59c0-2.2 1.6-4 3.6-4h101.6c2 0 3.6 1.8 3.6 4s-1.6 4-3.6 4H64.9c-2 0-3.6-1.8-3.6-4Zm0 24c0-2.2 1.6-4 3.6-4h101.6c2 0 3.6 1.8 3.6 4s-1.6 4-3.6 4H64.9c-2 0-3.6-1.8-3.6-4Zm0 24c0-2.2 1.6-4 3.6-4h101.6c2 0 3.6 1.8 3.6 4s-1.6 4-3.6 4H64.9c-2 0-3.6-1.8-3.6-4Zm0 24c0-2.2 1.6-4 3.6-4h101.6c2 0 3.6 1.8 3.6 4s-1.6 4-3.6 4H64.9c-2 0-3.6-1.8-3.6-4Z"
     fill="#FE5029"
     fill-opacity=".6"
     id="path8" />
  <path
     fill-rule="evenodd"
     clip-rule="evenodd"
     d="M55.2 175a28 28 0 0 0 26-17.5 28.9 28.9 0 0 0-6.1-31.2A28 28 0 0 0 27 146.5 28.9 28.9 0 0 0 44.4 173c3.4 1.5 7 2.2 10.8 2.2Z"
     fill="#FE5029"
     id="path10" />
  <path
     d="M55.2 157.4c5.8 0 10.5-4.8 10.5-10.8 0-5.9-4.7-10.7-10.5-10.7-5.9 0-10.6 4.8-10.6 10.7 0 6 4.7 10.8 10.6 10.8Z"
     fill="#fff"
     id="path12" />
  <path
     fill-rule="evenodd"
     clip-rule="evenodd"
     d="M55.2 119.1c-15 0-27.1 12.4-27.1 27.5a27.3 27.3 0 0 0 27 27.6c15 0 27.1-12.4 27.1-27.6a27.3 27.3 0 0 0-27-27.5ZM26 146.6c0-16.3 13-29.6 29.2-29.6a29.4 29.4 0 0 1 29.1 29.6c0 16.4-13 29.7-29.1 29.7A29.4 29.4 0 0 1 26 146.6Z"
     fill="#fff"
     id="path14" />
  <path
     d="M45.2 69.1a8 8 0 0 0 8-8 8 8 0 0 0-8-8.1 8 8 0 0 0-8 8 8 8 0 0 0 8 8.1Z"
     fill="#FE5029"
     id="path16" />
  <path
     d="M44.7 88.8c2 0 3.5-1.6 3.5-3.5 0-2-1.5-3.5-3.5-3.5-1.9 0-3.4 1.5-3.4 3.5s1.5 3.5 3.4 3.5Z"
     fill="#1F323F"
     id="path18" />
  <path
     d="M55 151.5c2.5 0 3.8-1.2 3.9-3.9h-2.5c0 1.1-.5 1.7-1.5 1.7s-1.4-.6-1.4-1.9v-1.8c0-1.4.5-2 1.4-2 1 0 1.4.6 1.5 1.7h2.5c0-2.6-1.4-3.9-4-3.9-2.7 0-4 1.4-4 4.2v1.8c0 2.8 1.3 4.1 4 4.1Z"
     fill="#FE5029"
     id="path20" />
  <path
     fill-rule="evenodd"
     clip-rule="evenodd"
     d="M133 98a7 7 0 0 0-7 7v19c0 5-4 9-9 9h-14.5c-5 0-9-4-9-9v-9a7 7 0 0 0-7-7H60.3a7 7 0 0 0-7 7v4h-2v-4c0-5 4-9 9-9h26.2c5 0 9 4 9 9v9a7 7 0 0 0 7 7H117a7 7 0 0 0 7-7v-19c0-5 4-9 9-9h1.3v2H133Z"
     fill="#FE5029"
     id="path22" />
  <g
     filter="url(#b)"
     id="g26">
    <path
       d="M204.6 61h-61c-2.4 0-4.3 2-4.3 4.4v61.8c0 2.5 1.9 4.4 4.3 4.4h61c2.4 0 4.4-2 4.4-4.4V65.4c0-2.4-2-4.4-4.4-4.4Z"
       fill="#fff"
       id="path24" />
  </g>
  <path
     d="M183 86.2h-16.9a2 2 0 0 0-2 2v17.2c0 1.1 1 2 2 2h17a2 2 0 0 0 2-2V88.2a2 2 0 0 0-2-2Z"
     fill="#FE5029"
     id="path28" />
  <path
     d="M169.7 94a.3.3 0 0 1 .2-.4.6.6 0 0 0 .4-.7 1.7 1.7 0 0 1 1.2-2l.5-.2a1.4 1.4 0 0 1 1.7.8l-.6.1a.8.8 0 0 0-1-.3l-.5.1a1.1 1.1 0 0 0-.8 1.4 1.1 1.1 0 0 1-.8 1.4h-.2l-.1-.2Zm9.9 2.5a4.6 4.6 0 0 1-3.7 5.7c-2.3.4-4.5-.9-5.2-3.1a5 5 0 0 1 1.2-4.8 1.1 1.1 0 0 0 .3-1.1V93a.6.6 0 0 1 .4-.7l1.9-.5a.6.6 0 0 1 .7.4 1.1 1.1 0 0 0 .9.9c1.7.3 3 1.6 3.5 3.4Zm-.8.2-.1-.2a.3.3 0 0 0-.4.1v.5a3.3 3.3 0 0 1-2.4 3.7l-.2.1v.2a.3.3 0 0 0 .3.2 3.8 3.8 0 0 0 2.8-4.6ZM168.5 94l-.5.1a.3.3 0 0 0-.1.5s.1.1.2 0h.6a.3.3 0 0 0 0-.6h-.2Zm-1-1.1.6.3h.2a.3.3 0 0 0 .2-.2c0-.1 0-.3-.2-.4l-.6-.2-.4.1c0 .2 0 .3.2.4Zm1.2 2.5-.4.6c-.1.1-.1.3 0 .4a.3.3 0 0 0 .3 0h.1l.5-.6v-.4a.3.3 0 0 0-.5 0Z"
     fill="#fff"
     id="path30" />
  <path
     d="M174.1 77.1a4 4 0 0 0 4-4 4 4 0 0 0-4-4 4 4 0 0 0-4 4 4 4 0 0 0 4 4Zm22.9 47.5a4 4 0 0 0 4-4 4 4 0 0 0-4-4.1 4 4 0 0 0-4 4 4 4 0 0 0 4 4Z"
     fill="#FE5029"
     id="path32" />
  <path
     d="M197 75.1a2 2 0 0 0 2-2 2 2 0 0 0-2-2 2 2 0 0 0-2 2c0 1.1 1 2 2 2Z"
     fill="#1F323F"
     id="path34" />
  <path
     d="M197 98.3a2 2 0 0 0 2-2 2 2 0 0 0-2-2 2 2 0 0 0-2 2c0 1.1 1 2 2 2Z"
     fill="#F9BE00"
     id="path36"
     style="fill:#3640f5;fill-opacity:1" />
  <path
     fill-rule="evenodd"
     clip-rule="evenodd"
     d="M197 65.6c-4 0-7.4 3.4-7.4 7.5s3.3 7.5 7.4 7.5c4.1 0 7.4-3.4 7.4-7.5s-3.3-7.5-7.4-7.5Zm-8 7.5a8 8 0 0 1 8-8 8 8 0 0 1 8 8 8 8 0 0 1-8 8 8 8 0 0 1-8-8Z"
     fill="#616161"
     id="path38" />
  <path
     d="M151.2 98.3a2 2 0 0 0 2-2 2 2 0 0 0-2-2 2 2 0 0 0-2 2c0 1.1 1 2 2 2Zm22.9 24.2a2 2 0 0 0 2-2 2 2 0 0 0-2-2 2 2 0 0 0-2 2c0 1.1 1 2 2 2Z"
     fill="#A3BACA"
     id="path40" />
  <path
     d="M151.2 75.1a2 2 0 0 0 0-4 2 2 0 0 0-2 2c0 1.1 1 2 2 2Z"
     fill="#F9BE00"
     id="path42"
     style="fill:#3640f5;fill-opacity:1" />
  <path
     d="M151.2 122.5a2 2 0 0 0 2-2 2 2 0 0 0-2-2 2 2 0 0 0-2 2c0 1.1 1 2 2 2Z"
     fill="#1F323F"
     id="path44" />
  <path
     d="M108.7 134c1.4 0 2.5-1 2.5-2.5 0-1.4-1-2.5-2.5-2.5a2.5 2.5 0 0 0-2.4 2.5c0 1.4 1 2.5 2.4 2.5Z"
     fill="#fff"
     id="path46" />
  <path
     d="M72.7 109c1.4 0 2.5-1 2.5-2.5 0-1.4-1-2.5-2.5-2.5a2.5 2.5 0 0 0-2.4 2.5c0 1.4 1 2.5 2.4 2.5Z"
     fill="#1F323F"
     id="path48" />
  <path
     d="M105.3 161.6c0-1 .6-1.6 1.5-1.6h91.9c.8 0 1.5.7 1.5 1.6V174c0 .8-.7 1.5-1.5 1.5h-92c-.8 0-1.4-.7-1.4-1.5v-12.4Z"
     fill="#fff"
     id="path50" />
  <path
     d="M115.8 164.7H110s-.2 0-.2.3v5.6l.2.3h5.8l.2-.3V165c0-.2 0-.3-.2-.3Z"
     fill="#FE5029"
     id="path52" />
  <path
     d="M122.5 170.9h.8v-5.6h1.9v-.8h-4.6v.8h1.9v5.6Zm4.7.1c1.2 0 1.9-.6 2-1.6h-.8c0 .5-.5.9-1.2.9-.8 0-1.2-.5-1.2-1.4v-.2h3.2v-.7c0-1.3-.7-2-2-2s-2 .7-2 2v1c0 1.3.7 2 2 2Zm-1.2-3c0-1 .4-1.3 1.2-1.3.8 0 1.2.4 1.2 1.3H126Zm4.4 2.9h.9V168c.1-1 .5-1.3 1.3-1.3h.3v-.8h-.4c-.7 0-1 .3-1.3 1v-1h-.8v4.9Zm3.3 0h.9V168c.1-1 .5-1.3 1.3-1.3h.3v-.8h-.4c-.7 0-1 .3-1.3 1v-1h-.8v4.9Zm5.1.1c1.4 0 2-.8 2-2.2v-.7c0-1.4-.6-2.2-2-2.2-1.3 0-2 .8-2 2.2v.7c0 1.4.7 2.2 2 2.2Zm0-.7c-.8 0-1.2-.5-1.2-1.5v-.7c0-1 .4-1.4 1.2-1.4.9 0 1.3.4 1.3 1.4v.7c0 1-.4 1.5-1.3 1.5Zm3.4.6h.8V168c.1-1 .6-1.3 1.3-1.3h.3v-.8h-.4c-.6 0-1 .3-1.3 1v-1h-.7v4.9Zm3.2-5.7h.9v-1h-.9v1Zm0 5.7h.9V166h-.8v4.8Zm3.9.1c1.3 0 2-.5 2-1.5s-.6-1.3-1.8-1.5c-.9 0-1.2-.2-1.2-.7 0-.4.3-.7 1-.7s1 .3 1 .8h.8c0-1-.6-1.5-1.8-1.5-1.2 0-1.8.6-1.8 1.5s.4 1.2 1.7 1.4c.9 0 1.2.3 1.2.8 0 .4-.3.7-1 .7-.9 0-1.3-.3-1.3-.9h-.7c0 1 .6 1.6 2 1.6Zm4.5-.1h.7v-.7h-.5c-.5 0-.7-.2-.7-.8v-2.7h1.2v-.6h-1.2v-1.3h-.7v1.3h-1v.6h1v2.7c0 1 .3 1.5 1.2 1.5Zm4.3 0h.8v-4.2h1.3v-.6h-1.3v-.6c0-.5.2-.7.7-.7h.6v-.7h-.8c-.9 0-1.3.5-1.3 1.5v.5h-.9v.6h1v4.2Zm2.9-5.7h.9v-1h-1v1Zm0 5.7h.8V166h-.8v4.8Zm2.4 0h.8v-3.2c.3-.7.7-1 1.3-1 .6 0 .8.3.8 1v3.2h.8v-3.2c0-1.2-.5-1.8-1.4-1.8-.7 0-1.2.3-1.6 1v-.8h-.7v4.8Zm6.4.1a2 2 0 0 0 1.6-.8v.7h.7v-3.2c0-1.2-.6-1.8-1.8-1.8-1.2 0-1.8.6-2 1.6h.9c0-.6.4-.8 1-.8.8 0 1.1.3 1.1 1v.3h-1.1c-1.3 0-2 .5-2 1.5s.6 1.5 1.6 1.5Zm.1-.7c-.6 0-.9-.3-.9-.8 0-.6.4-.8 1.2-.8h1.1v.7c-.2.5-.7.9-1.4.9Zm3.7.6h.8v-3.2c.3-.7.8-1 1.3-1 .6 0 .8.3.8 1v3.2h.9v-3.2c0-1.2-.5-1.8-1.5-1.8-.7 0-1.2.3-1.6 1v-.8h-.7v4.8Zm6.9.1c1.2 0 1.9-.6 2-1.8h-.8c-.1.8-.5 1-1.1 1-.8 0-1.2-.4-1.2-1.3v-.9c0-1 .4-1.3 1.2-1.3.6 0 1 .2 1 1h.8c0-1.1-.7-1.8-1.9-1.8s-2 .8-2 2v1c0 1.4.8 2 2 2Zm3-5.8h.9v-1h-.9v1Zm0 5.7h.9V166h-.8v4.8Zm2.4 0h.8v-3.2c.3-.7.8-1 1.3-1 .6 0 .9.3.9 1v3.2h.8v-3.2c0-1.2-.5-1.8-1.5-1.8-.7 0-1.2.3-1.6 1v-.8h-.7v4.8Zm7.1 1.8c1.3 0 2-.7 2-2v-4.6h-.7v.7c-.5-.6-1-.9-1.7-.9-1 0-1.7.7-1.7 2v.8c0 1.3.6 2 1.7 2 .7 0 1.2-.2 1.5-.7v.8c0 .8-.3 1.2-1.2 1.2-.7 0-1.1-.3-1.2-.8h-.7c0 1 .7 1.5 2 1.5Zm-.3-2.7c-.6 0-1-.5-1-1.3v-.7c0-.9.4-1.3 1-1.3s1.1.4 1.4 1v1.2c-.3.7-.8 1-1.4 1Z"
     fill="#1F323F"
     fill-opacity=".8"
     id="path54" />
  <path
     d="M156.3 182.6c0-1 .6-1.6 1.5-1.6h55.1c.9 0 1.6.7 1.6 1.6V195c0 .8-.7 1.5-1.6 1.5h-55.1c-.9 0-1.5-.7-1.5-1.5v-12.4Z"
     fill="#fff"
     id="path56" />
  <path
     d="M166.8 185.7H161s-.2 0-.2.3v5.6l.2.3h5.8l.2-.3V186c0-.2 0-.3-.2-.3Z"
     fill="#FE5029"
     id="path58" />
  <path
     d="M172.4 191.9h4.2v-.8h-3.4V189h2.8v-.8h-2.8v-2h3.3v-.7h-4v6.4Zm4.6 0h1l1.2-2 1.3 2h1l-1.7-2.4 1.6-2.4h-1l-1 1.7-1.3-1.7h-1l1.6 2.2-1.6 2.6Zm6.7 0h.8v-.7h-.6c-.5 0-.7-.2-.7-.8v-2.7h1.2v-.6h-1.2v-1.3h-.7v1.3h-.9v.6h.8v2.7c0 1 .4 1.5 1.3 1.5Zm3.5.1c1.4 0 2-.8 2-2.2v-.7c0-1.4-.6-2.2-2-2.2-1.3 0-2 .8-2 2.2v.7c0 1.4.7 2.2 2 2.2Zm0-.7c-.8 0-1.2-.5-1.2-1.5v-.7c0-1 .4-1.4 1.2-1.4.8 0 1.2.4 1.2 1.4v.7c0 1-.4 1.5-1.2 1.5Zm3.3.6h.8V189c.2-1 .6-1.3 1.4-1.3h.2v-.8h-.3c-.7 0-1 .3-1.3 1v-1h-.8v4.9Zm4.9 0h.7v-.7h-.5c-.6 0-.7-.2-.7-.8v-2.7h1.2v-.6h-1.2v-1.3h-.7v1.3h-1v.6h.9v2.7c0 1 .4 1.5 1.3 1.5Zm1.6-5.7h.9v-1h-.9v1Zm0 5.7h.9V187h-.8v4.8Zm4.2.1c1.3 0 2-.8 2-2.2v-.7c0-1.4-.7-2.2-2-2.2s-2 .8-2 2.2v.7c0 1.4.7 2.2 2 2.2Zm0-.7c-.8 0-1.2-.5-1.2-1.5v-.7c0-1 .4-1.4 1.2-1.4.8 0 1.2.4 1.2 1.4v.7c0 1-.4 1.5-1.2 1.5Zm3.3.6h.8v-3.2c.4-.7.8-1 1.4-1 .5 0 .8.3.8 1v3.2h.8v-3.2c0-1.2-.5-1.8-1.5-1.8-.6 0-1.1.3-1.6 1v-.8h-.7v4.8Z"
     fill="#1F323F"
     fill-opacity=".8"
     id="path60" />
  <path
     d="M106.3 182.6c0-1 .6-1.6 1.5-1.6H149c.9 0 1.6.7 1.6 1.6V195c0 .8-.7 1.5-1.6 1.5h-41.3c-.9 0-1.5-.7-1.5-1.5v-12.4Z"
     fill="#fff"
     id="path62" />
  <path
     d="M116.8 185.7H111s-.2 0-.2.3v5.6l.2.3h5.8l.2-.3V186c0-.2 0-.3-.2-.3Z"
     fill="#FE5029"
     id="path64" />
  <path
     d="M122.4 191.9h.8V189h2.8v-.8h-2.8v-2h3.2v-.7h-4v6.4Zm4.9 0h.8V189c.2-1 .6-1.3 1.4-1.3h.2v-.8h-.3c-.7 0-1.1.3-1.4 1v-1h-.7v4.9Zm4.5.1a2 2 0 0 0 1.6-.8v.7h.7v-3.2c0-1.2-.6-1.8-1.8-1.8-1.2 0-1.9.6-2 1.6h.8c0-.6.5-.8 1.1-.8.8 0 1.1.3 1.1 1v.3h-1.1c-1.4 0-2 .5-2 1.5s.6 1.5 1.6 1.5Zm.1-.7c-.6 0-.9-.3-.9-.8 0-.6.4-.8 1.2-.8h1.1v.7c-.3.5-.8.9-1.4.9Zm5.1.7c.6 0 1.2-.3 1.6-1v.9h.7V187h-.8v3c-.4.8-.8 1.1-1.4 1.1-.6 0-.8-.3-.8-1V187h-.8v3.1c0 1.2.5 1.8 1.5 1.8Zm5.3 0c.7 0 1.2-.3 1.6-1v.9h.7V185h-.8v2.6c-.4-.5-.9-.8-1.5-.8-1 0-1.7.7-1.7 2v1c0 1.4.6 2 1.7 2Zm.1-.7c-.6 0-1-.5-1-1.4v-1c0-.8.4-1.2 1-1.2s1.1.4 1.4 1v1.5c-.3.7-.8 1-1.4 1Z"
     fill="#1F323F"
     fill-opacity=".8"
     id="path66" />
  <path
     d="M201 202h-78.8c-1 0-2 .3-2 .7v14c0 .5 1 .8 2 .8H201c1 0 2-.3 2-.7v-14c0-.5-1-.8-2-.8Z"
     fill="#fff"
     id="path68" />
  <path
     d="M132.4 206.7h-5.9l-.1.3v5.6l.1.3h5.9l.1-.3V207l-.1-.3Z"
     fill="#F9BE00"
     id="path70"
     style="fill:#3640f5;fill-opacity:1" />
  <path
     d="M138 212.9h.8V211l1.1-1.2 1.9 3h1l-2.3-3.7 2.2-2.6h-1l-3 3.4v-3.4h-.8v6.4Zm5.7 0h.8v-3.2c.3-.7.8-1 1.3-1 .6 0 .8.3.8 1v3.2h.9v-3.2c0-1.2-.5-1.8-1.5-1.8-.7 0-1.2.3-1.6 1v-.8h-.7v4.8Zm7 .1c1.4 0 2-.8 2-2.2v-.7c0-1.4-.6-2.2-2-2.2-1.3 0-2 .8-2 2.2v.7c0 1.4.7 2.2 2 2.2Zm0-.7c-.8 0-1.2-.5-1.2-1.5v-.7c0-1 .4-1.4 1.2-1.4.9 0 1.3.4 1.3 1.4v.7c0 1-.4 1.5-1.3 1.5Zm4.1.6h.9l1-3.7 1.2 3.7h.9l1.4-4.8h-.8l-1 3.7-1.2-3.7h-.8l-1.1 3.7-1.1-3.7h-.9l1.5 4.8Zm6.3 0h.8v-3.2c.4-.7.8-1 1.4-1 .5 0 .8.3.8 1v3.2h.8v-3.2c0-1.2-.5-1.8-1.5-1.8-.6 0-1.2.3-1.6 1v-.8h-.7v4.8Zm9.9.1c1.4 0 2.2-.8 2.2-2.2h-.8c0 1-.5 1.4-1.5 1.4s-1.5-.5-1.5-1.8V209c0-1.2.5-1.7 1.5-1.7s1.5.4 1.5 1.4h.8c0-1.5-.8-2.2-2.3-2.2-1.5 0-2.3.9-2.3 2.5v1.6c0 1.6.8 2.5 2.3 2.5Zm3.4-.1h.9V206h-.9v6.8Zm3.8.1c.7 0 1.2-.3 1.6-1v.9h.7V208h-.8v3c-.3.8-.8 1.1-1.3 1.1-.6 0-.9-.3-.9-1V208h-.8v3.1c0 1.2.5 1.8 1.5 1.8Zm5.4 0c1.2 0 1.9-.5 1.9-1.5s-.5-1.3-1.8-1.5c-.8 0-1.2-.2-1.2-.7 0-.4.4-.7 1-.7.8 0 1.1.3 1.1.8h.8c0-1-.6-1.5-1.8-1.5-1.2 0-1.8.6-1.8 1.5s.4 1.2 1.7 1.4c.9 0 1.2.3 1.2.8 0 .4-.4.7-1.1.7-.8 0-1.2-.3-1.2-.9h-.8c0 1 .7 1.6 2 1.6Zm4.4-.1h.8v-.7h-.5c-.6 0-.7-.2-.7-.8v-2.7h1.2v-.6h-1.2v-1.3h-.7l-.1 1.3h-.8v.6h.8v2.7c0 1 .4 1.5 1.3 1.5Zm3.6.1c1.1 0 1.8-.6 1.9-1.6h-.8c0 .5-.4.9-1.1.9-.9 0-1.3-.5-1.3-1.4v-.2h3.2v-.7c0-1.3-.7-2-2-2s-2 .7-2 2v1c0 1.3.7 2 2 2Zm-1.3-3c0-1 .4-1.3 1.2-1.3.9 0 1.2.4 1.2 1.3h-2.4Zm4.5 2.9h.8V210c.2-1 .6-1.3 1.4-1.3h.2v-.8h-.3c-.7 0-1.1.3-1.4 1v-1h-.7v4.9Z"
     fill="#1F323F"
     fill-opacity=".8"
     id="path72" />
  <path
     fill-rule="evenodd"
     clip-rule="evenodd"
     d="m134.7 93.1 5.2 3.1c.2.1.3.3.4.6l-.1.7-.3.3-5.2 3a1 1 0 0 1-1 0 1 1 0 0 1-.4-1l.5-2.6v-.4l-.5-2.7a.9.9 0 0 1 .4-1 1 1 0 0 1 1 0Zm-33 71 5.2 3.1c.2.1.3.3.4.6l-.1.7-.3.3-5.2 3a1 1 0 0 1-1 0 1 1 0 0 1-.4-1l.5-2.6v-.4l-.5-2.7a.9.9 0 0 1 .4-1 1 1 0 0 1 1 0Zm0 22 5.2 3.1c.2.1.3.3.4.6l-.1.7-.3.3-5.2 3a1 1 0 0 1-1 0 1 1 0 0 1-.4-1l.5-2.6v-.4l-.5-2.7a.9.9 0 0 1 .4-1 1 1 0 0 1 1 0Zm15 20 5.2 3.1c.2.1.3.3.4.6l-.1.7-.3.3-5.2 3a1 1 0 0 1-1 0 1 1 0 0 1-.4-1l.5-2.6v-.4l-.5-2.7a.9.9 0 0 1 .4-1 1 1 0 0 1 1 0Z"
     fill="#FE5029"
     id="path74" />
  <path
     fill-rule="evenodd"
     clip-rule="evenodd"
     d="M99.4 169a7 7 0 0 0-7 7v7c0 5-4 9-9 9H64.3c-5 0-9-4-9-9v-8.9h2v8.9a7 7 0 0 0 7 7h19a7 7 0 0 0 7-7v-7c0-5 4.1-9 9-9h5v2h-5Z"
     fill="#FE5029"
     id="path76" />
  <path
     fill-rule="evenodd"
     clip-rule="evenodd"
     d="M92.3 185v17a7 7 0 0 0 7 7h21v2h-21c-5 0-9-4-9-9v-17h2Z"
     fill="#FE5029"
     id="path78" />
  <path
     fill-rule="evenodd"
     clip-rule="evenodd"
     d="M94.2 186h-3v-2h3c2 0 3.5 1.6 3.5 3.5 0 .8.7 1.5 1.5 1.5h3.6v2h-3.6c-2 0-3.5-1.6-3.5-3.5 0-.8-.7-1.5-1.5-1.5Z"
     fill="#FE5029"
     id="path80" />
  <path
     d="M73.7 194c2 0 3.5-1.5 3.5-3.5s-1.5-3.5-3.5-3.5a3.5 3.5 0 0 0-3.4 3.5c0 2 1.5 3.6 3.4 3.6Z"
     fill="#1F323F"
     id="path82" />
  <defs
     id="defs118">
    <filter
       id="a"
       x="32.3"
       y="29"
       width="165"
       height="231"
       filterUnits="userSpaceOnUse"
       color-interpolation-filters="sRGB">
      <feFlood
         flood-opacity="0"
         result="BackgroundImageFix"
         id="feFlood84" />
      <feColorMatrix
         in="SourceAlpha"
         values="0 0 0 0 0 0 0 0 0 0 0 0 0 0 0 0 0 0 127 0"
         result="hardAlpha"
         id="feColorMatrix86" />
      <feOffset
         dy="4"
         id="feOffset88" />
      <feGaussianBlur
         stdDeviation="6"
         id="feGaussianBlur90" />
      <feComposite
         in2="hardAlpha"
         operator="out"
         id="feComposite92" />
      <feColorMatrix
         values="0 0 0 0 0.560938 0 0 0 0 0.549041 0 0 0 0 0.608529 0 0 0 0.25 0"
         id="feColorMatrix94" />
      <feBlend
         in2="BackgroundImageFix"
         result="effect1_dropShadow_13_120"
         id="feBlend96" />
      <feBlend
         in="SourceGraphic"
         in2="effect1_dropShadow_13_120"
         result="shape"
         id="feBlend98" />
    </filter>
    <filter
       id="b"
       x="127.3"
       y="53"
       width="93.7"
       height="94.6"
       filterUnits="userSpaceOnUse"
       color-interpolation-filters="sRGB">
      <feFlood
         flood-opacity="0"
         result="BackgroundImageFix"
         id="feFlood101" />
      <feColorMatrix
         in="SourceAlpha"
         values="0 0 0 0 0 0 0 0 0 0 0 0 0 0 0 0 0 0 127 0"
         result="hardAlpha"
         id="feColorMatrix103" />
      <feOffset
         dy="4"
         id="feOffset105" />
      <feGaussianBlur
         stdDeviation="6"
         id="feGaussianBlur107" />
      <feComposite
         in2="hardAlpha"
         operator="out"
         id="feComposite109" />
      <feColorMatrix
         values="0 0 0 0 0.560938 0 0 0 0 0.549041 0 0 0 0 0.608529 0 0 0 0.25 0"
         id="feColorMatrix111" />
      <feBlend
         in2="BackgroundImageFix"
         result="effect1_dropShadow_13_120"
         id="feBlend113" />
      <feBlend
         in="SourceGraphic"
         in2="effect1_dropShadow_13_120"
         result="shape"
         id="feBlend115" />
    </filter>
  </defs>
</svg>
