<?xml version="1.0" encoding="UTF-8" standalone="no"?>
<svg
   xmlns:dc="http://purl.org/dc/elements/1.1/"
   xmlns:cc="http://creativecommons.org/ns#"
   xmlns:rdf="http://www.w3.org/1999/02/22-rdf-syntax-ns#"
   xmlns:svg="http://www.w3.org/2000/svg"
   xmlns="http://www.w3.org/2000/svg"
   xmlns:sodipodi="http://sodipodi.sourceforge.net/DTD/sodipodi-0.dtd"
   xmlns:inkscape="http://www.inkscape.org/namespaces/inkscape"
   width="240"
   height="280"
   fill="none"
   version="1.1"
   id="svg116"
   sodipodi:docname="img_ContiLeaks_row_2_icon_3.svg"
   inkscape:version="0.92.5 (2060ec1f9f, 2020-04-08)">
  <metadata
     id="metadata120">
    <rdf:RDF>
      <cc:Work
         rdf:about="">
        <dc:format>image/svg+xml</dc:format>
        <dc:type
           rdf:resource="http://purl.org/dc/dcmitype/StillImage" />
      </cc:Work>
    </rdf:RDF>
  </metadata>
  <sodipodi:namedview
     pagecolor="#ffffff"
     bordercolor="#666666"
     borderopacity="1"
     objecttolerance="10"
     gridtolerance="10"
     guidetolerance="10"
     inkscape:pageopacity="0"
     inkscape:pageshadow="2"
     inkscape:window-width="1872"
     inkscape:window-height="1016"
     id="namedview118"
     showgrid="false"
     inkscape:zoom="6.7428571"
     inkscape:cx="76.184258"
     inkscape:cy="85.502985"
     inkscape:window-x="0"
     inkscape:window-y="27"
     inkscape:window-maximized="1"
     inkscape:current-layer="svg116" />
  <g
     filter="url(#a)"
     id="g4">
    <path
       d="M59 43.02A5.95 5.95 0 0 1 64.88 37h137.24c3.25 0 5.88 2.7 5.88 6.02v194.96a5.95 5.95 0 0 1-5.88 6.02H64.88a5.95 5.95 0 0 1-5.88-6.02V43.02Z"
       fill="#fff"
       id="path2" />
  </g>
  <path
     opacity=".5"
     d="M77 106.5c0-2.48 1.72-4.5 3.83-4.5h107.34c2.11 0 3.83 2.02 3.83 4.5s-1.72 4.5-3.83 4.5H80.83c-2.11 0-3.83-2.02-3.83-4.5ZM101 71c0-2.2 1.72-4 3.84-4h58.32c2.12 0 3.84 1.8 3.84 4s-1.72 4-3.84 4h-58.32a3.92 3.92 0 0 1-3.84-4Zm-24 59c0-2.2 1.72-4 3.83-4h107.34c2.11 0 3.83 1.8 3.83 4s-1.72 4-3.83 4H80.83a3.92 3.92 0 0 1-3.83-4Zm0 24c0-2.2 1.72-4 3.83-4h107.34c2.11 0 3.83 1.8 3.83 4s-1.72 4-3.83 4H80.83a3.92 3.92 0 0 1-3.83-4Zm0 24c0-2.2 1.72-4 3.83-4h107.34c2.11 0 3.83 1.8 3.83 4s-1.72 4-3.83 4H80.83a3.92 3.92 0 0 1-3.83-4Zm0 24c0-2.2 1.72-4 3.83-4h107.34c2.11 0 3.83 1.8 3.83 4s-1.72 4-3.83 4H80.83a3.92 3.92 0 0 1-3.83-4Z"
     fill="#BEC5CA"
     fill-opacity=".5"
     id="path6" />
  <path
     fill-rule="evenodd"
     clip-rule="evenodd"
     d="m107.15 73.18 5.38 3.18c.21.13.37.34.43.59.06.24.02.5-.11.71a.98.98 0 0 1-.32.32l-5.38 3.18a1 1 0 0 1-1.06-.03.95.95 0 0 1-.35-.43.92.92 0 0 1-.05-.54l.58-2.8a.9.9 0 0 0 0-.38l-.58-2.8a.95.95 0 0 1 .4-.96 1 1 0 0 1 1.06-.04Zm0 79.78 5.38 3.17c.21.14.37.35.43.59s.02.5-.11.72a.98.98 0 0 1-.32.31l-5.38 3.18a.99.99 0 0 1-1.4-.46.92.92 0 0 1-.06-.54l.58-2.8a.9.9 0 0 0 0-.37l-.58-2.81a.92.92 0 0 1 .4-.96 1 1 0 0 1 1.06-.03ZM42.1 136.07l-5.38-3.18a.93.93 0 0 1-.32-1.3c.08-.13.2-.24.32-.32l5.38-3.18a.99.99 0 0 1 1.4.46c.08.17.1.36.06.54l-.58 2.8a.86.86 0 0 0 0 .38l.58 2.8c.03.19.02.37-.05.54a.95.95 0 0 1-.35.43 1 1 0 0 1-1.06.03Zm-9.33 52.83-5.37-3.17a.95.95 0 0 1-.44-.59.93.93 0 0 1 .12-.71.98.98 0 0 1 .32-.32l5.37-3.18a.99.99 0 0 1 1.41.46c.07.17.1.36.05.54l-.57 2.8a.87.87 0 0 0 0 .38l.57 2.8a.92.92 0 0 1-.4.96.98.98 0 0 1-1.06.03Z"
     fill="#A3BACA"
     id="path8" />
  <path
     d="M229.16 138.98a9.52 9.52 0 1 0 .02-19.04 9.52 9.52 0 0 0-.02 19.04Z"
     fill="#8AD3A1"
     id="path10" />
  <path
     d="M228.96 95.84a4.14 4.14 0 1 0 0-8.3 4.14 4.14 0 0 0 0 8.3Z"
     fill="#1F323F"
     id="path12" />
  <path
     d="M228.96 61.65a2.07 2.07 0 1 0 0-4.15 2.07 2.07 0 0 0 0 4.15Z"
     fill="#F9BE00"
     id="path14" />
  <path
     fill-rule="evenodd"
     clip-rule="evenodd"
     d="M20.1 144.98a13.09 13.09 0 0 0 12.12-8.14 13.23 13.23 0 0 0-2.85-14.36 13.1 13.1 0 0 0-22.4 9.32 13.22 13.22 0 0 0 8.1 12.18c1.59.66 3.3 1 5.02 1Z"
     fill="#fff"
     id="path16" />
  <path
     fill-rule="evenodd"
     clip-rule="evenodd"
     d="M20.1 119.16a12.7 12.7 0 1 0 0 25.4 12.7 12.7 0 0 0 0-25.4Zm-13.7 12.7a13.68 13.68 0 1 1 27.38 0 13.68 13.68 0 0 1-27.37 0Zm15.56-27.58a3.4 3.4 0 0 0-5.09 2.95c0 .6.17 1.18.47 1.7l2.92 4.88 2.91-4.88.32.18-.32-.19a3.36 3.36 0 0 0-1.2-4.64Zm1.85 5.02a4.1 4.1 0 0 0-3.55-6.21m3.55 6.21Zm0 0-3.55 5.97-3.56-5.97a4.1 4.1 0 0 1 3.56-6.21"
     fill="#616161"
     id="path18" />
  <path
     fill-rule="evenodd"
     clip-rule="evenodd"
     d="M20.26 106.06a1.28 1.28 0 1 0 0 2.55 1.28 1.28 0 0 0 0-2.55Zm-2.01 1.27a2.01 2.01 0 1 1 4.02 0 2.01 2.01 0 0 1-4.02 0Z"
     fill="#616161"
     id="path20" />
  <path
     fill-rule="evenodd"
     clip-rule="evenodd"
     d="M130.64 168.23a13.12 13.12 0 1 0 .23-26.24 13.12 13.12 0 0 0-.23 26.24Z"
     fill="#fff"
     id="path22" />
  <path
     fill-rule="evenodd"
     clip-rule="evenodd"
     d="M124.87 149.92a.66.66 0 0 0 .19.46.65.65 0 0 0 .46.2h10.76v5.03h-.98v-4.04h-9.78c-.22 0-.43-.05-.63-.13l-.02-.01v8.31a1.23 1.23 0 0 0 1.22 1.24h9.2v-4.05h1v5.04h-10.2a2.2 2.2 0 0 1-2.04-1.38 2.23 2.23 0 0 1-.17-.85v-9.83h.99v.01Z"
     fill="#FE5029"
     id="path24" />
  <path
     fill-rule="evenodd"
     clip-rule="evenodd"
     d="M125.5 148.35h8.44v1.53h-.98v-.56h-7.45a.66.66 0 0 0-.46.19.64.64 0 0 0-.19.45h-.49.5a.64.64 0 0 0 .4.6c.07.03.16.05.24.05h.5l-.01.98h-.5a1.65 1.65 0 0 1-1.5-1.01 1.6 1.6 0 0 1 0-1.23 1.6 1.6 0 0 1 .88-.88c.2-.08.41-.12.63-.12Zm8.6 6.25h3.3v3.35h-3.3a1.58 1.58 0 0 1-1.15-.5 1.67 1.67 0 0 1-.46-1.17 1.69 1.69 0 0 1 .98-1.55c.2-.08.41-.13.62-.13Zm-1.13 1.68h.49a.7.7 0 0 0 .18.47.64.64 0 0 0 .46.2h2.33v-1.34h-2.33a.63.63 0 0 0-.46.2.69.69 0 0 0-.19.47h-.48Z"
     fill="#FE5029"
     id="path26" />
  <path
     fill-rule="evenodd"
     clip-rule="evenodd"
     d="M130.64 142.4a12.64 12.64 0 0 0-12.58 12.7c0 7.02 5.63 12.7 12.58 12.7s12.59-5.68 12.59-12.7c0-7.01-5.64-12.7-12.59-12.7Zm-13.57 12.7c0-7.55 6.07-13.68 13.57-13.68s13.57 6.13 13.57 13.69c0 7.55-6.07 13.68-13.57 13.68s-13.57-6.13-13.57-13.69Z"
     fill="#616161"
     id="path28" />
  <path
     fill-rule="evenodd"
     clip-rule="evenodd"
     d="M13.57 198.28A13.13 13.13 0 1 0 13.8 172a13.13 13.13 0 0 0-.22 26.27Z"
     fill="#fff"
     id="path30" />
  <path
     fill-rule="evenodd"
     clip-rule="evenodd"
     d="M13.57 172.45A12.64 12.64 0 0 0 1 185.15c0 7.01 5.64 12.7 12.58 12.7 6.95 0 12.59-5.69 12.59-12.7 0-7.02-5.64-12.7-12.59-12.7ZM0 185.15c0-7.56 6.07-13.69 13.57-13.69s13.58 6.13 13.58 13.69c0 7.55-6.08 13.68-13.58 13.68S0 192.7 0 185.15Z"
     fill="#616161"
     id="path32" />
  <path
     d="M13.47 188.04a3.1 3.1 0 1 0 0-6.22 3.1 3.1 0 0 0 0 6.22Z"
     fill="#1F323F"
     id="path34" />
  <path
     opacity=".3"
     d="M28.92 128.34a5.3 5.3 0 1 0 0-10.62 5.3 5.3 0 0 0 0 10.62Z"
     fill="#FF9300"
     id="path36" />
  <path
     d="M28.92 126.55a3.52 3.52 0 1 0 0-7.04 3.52 3.52 0 0 0 0 7.04Z"
     fill="#FF9300"
     id="path38" />
  <path
     fill-rule="evenodd"
     clip-rule="evenodd"
     d="M28.92 120.05a2.98 2.98 0 1 0 0 5.96 2.98 2.98 0 0 0 0-5.96Zm-3.97 2.98a3.97 3.97 0 1 1 7.93 0 3.97 3.97 0 0 1-7.93 0Z"
     fill="#F9F9F9"
     id="path40" />
  <path
     fill-rule="evenodd"
     clip-rule="evenodd"
     d="M129.6 91.42a13.12 13.12 0 1 0 .23-26.24 13.12 13.12 0 0 0-.22 26.24Z"
     fill="#fff"
     id="path42" />
  <path
     d="M129.6 83.27a4.92 4.92 0 0 0 4.86-4.97 4.92 4.92 0 0 0-4.86-4.97 4.92 4.92 0 0 0-4.85 4.97 4.92 4.92 0 0 0 4.85 4.97Z"
     fill="#FE5029"
     id="path44" />
  <path
     fill-rule="evenodd"
     clip-rule="evenodd"
     d="M129.6 65.6a12.64 12.64 0 0 0-12.58 12.7c0 7.01 5.64 12.7 12.58 12.7 6.95 0 12.6-5.69 12.6-12.7 0-7.02-5.65-12.7-12.6-12.7Zm-13.57 12.7c0-7.56 6.08-13.69 13.57-13.69 7.5 0 13.58 6.13 13.58 13.69 0 7.55-6.08 13.68-13.58 13.68s-13.57-6.13-13.57-13.68Z"
     fill="#616161"
     id="path46" />
  <path
     opacity=".3"
     d="M139.21 74.22c2.93 0 5.3-2.35 5.3-5.25s-2.37-5.25-5.3-5.25a5.28 5.28 0 0 0-5.3 5.25c0 2.9 2.37 5.25 5.3 5.25Z"
     fill="#FF9300"
     id="path48" />
  <path
     d="M139.21 72.43a3.5 3.5 0 0 0 3.52-3.46 3.5 3.5 0 0 0-3.52-3.46 3.5 3.5 0 0 0-3.52 3.46 3.5 3.5 0 0 0 3.52 3.46Z"
     fill="#FF9300"
     id="path50" />
  <path
     fill-rule="evenodd"
     clip-rule="evenodd"
     d="M139.21 65.93a2.98 2.98 0 1 0 0 5.97 2.98 2.98 0 0 0 0-5.97Zm-3.96 2.98a3.97 3.97 0 1 1 7.93 0 3.97 3.97 0 0 1-7.93 0Z"
     fill="#F9F9F9"
     id="path52" />
  <path
     fill-rule="evenodd"
     clip-rule="evenodd"
     d="M94.61 78.19a7 7 0 0 0-7 7v108.44a6.8 6.8 0 0 1-6.8 6.8v-2a4.8 4.8 0 0 0 4.8-4.8V85.2a9 9 0 0 1 9-9h12.1v2H94.6ZM44.56 133.1a7 7 0 0 1 7 7v37.3c0 3 2.43 5.42 5.42 5.42v-2a3.42 3.42 0 0 1-3.42-3.42v-37.3a9 9 0 0 0-9-9H40.4v2h4.16Z"
     fill="#A3BACA"
     id="path54" />
  <path
     d="M86.5 112.46a2.6 2.6 0 0 0 2.58-2.61 2.6 2.6 0 0 0-2.58-2.62 2.6 2.6 0 0 0-2.58 2.61 2.6 2.6 0 0 0 2.58 2.62Z"
     fill="#F9BE00"
     id="path56" />
  <path
     d="M52.3 161.15a2.6 2.6 0 0 0 2.59-2.61 2.6 2.6 0 0 0-2.58-2.61 2.6 2.6 0 0 0-2.58 2.6 2.6 2.6 0 0 0 2.58 2.62Z"
     fill="#FE5029"
     id="path58" />
  <path
     fill-rule="evenodd"
     clip-rule="evenodd"
     d="M98.87 157.96a7 7 0 0 0-7 7v26.48a9 9 0 0 1-9 9h-6.2v-2h6.2a7 7 0 0 0 7-7v-26.48a9 9 0 0 1 9-9h10.95v2H98.87Zm-65.79 27.97a4.77 4.77 0 0 1 4.77 4.78v3.83a9 9 0 0 0 9 9h1.84v-2h-1.84a7 7 0 0 1-7-7v-3.83a6.77 6.77 0 0 0-6.77-6.78v2Z"
     fill="#A3BACA"
     id="path60" />
  <path
     fill-rule="evenodd"
     clip-rule="evenodd"
     d="M63.78 217.74a18.6 18.6 0 1 0-18.44-18.6 18.52 18.52 0 0 0 18.44 18.6Z"
     fill="#fff"
     id="path62" />
  <path
     d="M63.78 206.18c3.8 0 6.88-3.15 6.88-7.04a6.96 6.96 0 0 0-6.88-7.04 6.96 6.96 0 0 0-6.89 7.04 6.96 6.96 0 0 0 6.89 7.04Z"
     fill="#F9BE00"
     id="path64"
     style="fill:#3640f5;fill-opacity:1" />
  <path
     fill-rule="evenodd"
     clip-rule="evenodd"
     d="M63.78 181.15a17.91 17.91 0 0 0-17.83 17.99c0 9.94 7.99 17.99 17.83 17.99 9.84 0 17.83-8.05 17.83-17.99 0-9.94-7.99-17.99-17.83-17.99Zm-19.23 17.99a19.3 19.3 0 0 1 19.23-19.39A19.3 19.3 0 0 1 83 199.14a19.3 19.3 0 0 1-19.23 19.39 19.3 19.3 0 0 1-19.23-19.39Z"
     fill="#616161"
     id="path66" />
  <path
     d="M86.5 142.5a2.6 2.6 0 0 0 2.58-2.61 2.6 2.6 0 0 0-2.58-2.61 2.6 2.6 0 0 0-2.58 2.6 2.6 2.6 0 0 0 2.58 2.62Z"
     fill="#1F323F"
     id="path70" />
  <path
     d="M19.66 137.28h1.15v-1.01c2-.16 3.02-1.01 3.02-2.65 0-1.54-.86-2.29-3.02-2.6V128c1.03.13 1.55.62 1.55 1.47h1.24c0-1.58-.95-2.44-2.8-2.58v-1.02h-1.14v1.01c-1.93.15-2.95 1.06-2.95 2.63 0 1.48.82 2.2 2.95 2.53v3.11c-1.23-.1-1.84-.6-1.84-1.55h-1.24c0 1.66 1.02 2.53 3.08 2.66v1Zm0-6.46c-1.15-.26-1.61-.7-1.61-1.45 0-.8.52-1.26 1.6-1.37v2.82Zm1.15 4.34v-2.92c1.22.26 1.68.72 1.68 1.52 0 .83-.53 1.29-1.68 1.4Z"
     fill="#FE5029"
     id="path72" />
  <g
     filter="url(#b)"
     id="g76"
     style="fill:#3640f5;fill-opacity:1">
    <path
       d="M110 196.19a4 4 0 0 1 4-4h108.03a4 4 0 0 1 4 4v25.15a4 4 0 0 1-4 4H114a4 4 0 0 1-4-4v-25.16Z"
       fill="#F9BE00"
       id="path74"
       style="fill:#3640f5;fill-opacity:1" />
  </g>
  <path
     d="M141.68 214.3h2.03l3.6-10.89h-1.97l-2.6 8.32-2.6-8.32h-2.06l3.6 10.88Zm9.44.19c2.14 0 3.38-.93 3.47-2.7h-1.84c-.06.71-.62 1.14-1.63 1.14-1.23 0-1.78-.62-1.78-1.97v-.25h5.3v-1.38c0-2.29-1.25-3.53-3.61-3.53-2.34 0-3.6 1.23-3.6 3.52v1.63c0 2.32 1.28 3.54 3.7 3.54Zm-1.78-5.2c0-1.35.53-1.94 1.75-1.94 1.2 0 1.73.6 1.73 1.94h-3.47Zm7.25 5.01h1.92v-4.78c.26-1.32.91-1.87 2.2-1.87h.42v-1.82h-.59c-1.17 0-1.87.53-2.24 1.68l-.08-1.52h-1.63v8.3Zm5.83-9.64h2.05v-1.8h-2.05v1.8Zm.06 9.63h1.92V206h-1.92v8.3Zm4.64.01h1.91v-6.82H171v-1.5h-1.96v-.68c0-.85.28-1.17 1.03-1.17h1v-1.52h-1.58c-1.58 0-2.36.87-2.36 2.66v.72h-1.4v1.49h1.4v6.81Zm5.13-9.64h2.05v-1.8h-2.05v1.8Zm.06 9.63h1.93V206h-1.93v8.3Zm7.61.2c2.14 0 3.37-.93 3.47-2.7h-1.84c-.06.71-.62 1.14-1.63 1.14-1.23 0-1.78-.62-1.78-1.97v-.25h5.3v-1.38c0-2.29-1.25-3.53-3.62-3.53-2.33 0-3.6 1.23-3.6 3.52v1.63c0 2.32 1.28 3.54 3.7 3.54Zm-1.78-5.2c0-1.35.53-1.94 1.75-1.94 1.2 0 1.72.6 1.72 1.94h-3.47Zm9.92 5.2c1.12 0 1.93-.42 2.59-1.35l.06 1.15h1.64v-11.68h-1.92v4.24a2.88 2.88 0 0 0-2.37-1.05c-1.92 0-3.01 1.18-3.01 3.44v1.82c0 2.26 1.09 3.43 3 3.43Zm.38-1.6c-.94 0-1.47-.61-1.47-1.86v-1.78c0-1.26.53-1.85 1.46-1.85.9 0 1.56.54 2 1.55v2.38c-.44 1.01-1.1 1.55-1.99 1.55Z"
     fill="#fff"
     id="path78" />
  <defs
     id="defs114">
    <filter
       id="a"
       x="47"
       y="29"
       width="173"
       height="231"
       filterUnits="userSpaceOnUse"
       color-interpolation-filters="sRGB">
      <feFlood
         flood-opacity="0"
         result="BackgroundImageFix"
         id="feFlood80" />
      <feColorMatrix
         in="SourceAlpha"
         values="0 0 0 0 0 0 0 0 0 0 0 0 0 0 0 0 0 0 127 0"
         result="hardAlpha"
         id="feColorMatrix82" />
      <feOffset
         dy="4"
         id="feOffset84" />
      <feGaussianBlur
         stdDeviation="6"
         id="feGaussianBlur86" />
      <feComposite
         in2="hardAlpha"
         operator="out"
         id="feComposite88" />
      <feColorMatrix
         values="0 0 0 0 0.560938 0 0 0 0 0.549041 0 0 0 0 0.608529 0 0 0 0.25 0"
         id="feColorMatrix90" />
      <feBlend
         in2="BackgroundImageFix"
         result="effect1_dropShadow_13_219"
         id="feBlend92" />
      <feBlend
         in="SourceGraphic"
         in2="effect1_dropShadow_13_219"
         result="shape"
         id="feBlend94" />
    </filter>
    <filter
       id="b"
       x="98"
       y="184.19"
       width="140.03"
       height="57.15"
       filterUnits="userSpaceOnUse"
       color-interpolation-filters="sRGB">
      <feFlood
         flood-opacity="0"
         result="BackgroundImageFix"
         id="feFlood97" />
      <feColorMatrix
         in="SourceAlpha"
         values="0 0 0 0 0 0 0 0 0 0 0 0 0 0 0 0 0 0 127 0"
         result="hardAlpha"
         id="feColorMatrix99" />
      <feOffset
         dy="4"
         id="feOffset101" />
      <feGaussianBlur
         stdDeviation="6"
         id="feGaussianBlur103" />
      <feComposite
         in2="hardAlpha"
         operator="out"
         id="feComposite105" />
      <feColorMatrix
         values="0 0 0 0 0.560938 0 0 0 0 0.549041 0 0 0 0 0.608529 0 0 0 0.25 0"
         id="feColorMatrix107" />
      <feBlend
         in2="BackgroundImageFix"
         result="effect1_dropShadow_13_219"
         id="feBlend109" />
      <feBlend
         in="SourceGraphic"
         in2="effect1_dropShadow_13_219"
         result="shape"
         id="feBlend111" />
    </filter>
  </defs>
</svg>
