<?xml version="1.0" encoding="UTF-8"?><svg xmlns="http://www.w3.org/2000/svg" viewBox="0 0 95 94" fill="none"><path d="M95 0H0v94h95V0Z" fill="#174082"></path><path d="M16.8 9.7v12h-2v-12h2Zm36.2 0v12h-1.8L44 13v8.6h-2V9.7h2l7.1 8.7V9.7h2ZM51 51h-7l-.9 2H41l5.5-12h2L54 53h-2l-1-2Zm-6-2h5l-2.5-5.4-2.6 5.4Zm35.2-6v10h-2V43h-4.6v-2h11v2h-4.4ZM16.6 72.4c.6 0 1 0 1.4.2l1.1.7.7 1a3.4 3.4 0 0 1-.1 3c-.3.4-.6.8-1 1 .4.3.8.6 1 1.1.3.4.4 1 .4 1.6a3.4 3.4 0 0 1-1 2.4 2 2 0 0 1-1 .6 4 4 0 0 1-1.5.3h-5v-12h5Zm1.5 3.4c0-.4 0-.8-.4-1-.3-.3-.6-.5-1-.5h-3.2v3h3.2c.4 0 .8 0 1-.4.3-.3.4-.6.4-1.1Zm0 5c0-.4 0-.8-.4-1-.2-.4-.6-.5-1-.5h-3.2v3h3.1c.5 0 .8 0 1.1-.4.3-.2.4-.6.4-1ZM51 82.3h-7l-.9 2H41l5.5-12h2l5.5 12h-2l-1-2Zm-6-2h5L47.6 75 45 80.5ZM84.5 9.8l-11.2 11 .7.7 11.2-11-.7-.7ZM23.8 46.5H7.9v1h15.9v-1Zm50.2 26-.8.6 11.2 11.1.7-.7-11.2-11Z" fill="#EDADAD"></path></svg>