<?xml version="1.0" encoding="UTF-8" standalone="no"?>
<svg
   xmlns:dc="http://purl.org/dc/elements/1.1/"
   xmlns:cc="http://creativecommons.org/ns#"
   xmlns:rdf="http://www.w3.org/1999/02/22-rdf-syntax-ns#"
   xmlns:svg="http://www.w3.org/2000/svg"
   xmlns="http://www.w3.org/2000/svg"
   xmlns:sodipodi="http://sodipodi.sourceforge.net/DTD/sodipodi-0.dtd"
   xmlns:inkscape="http://www.inkscape.org/namespaces/inkscape"
   viewBox="0 0 2187.3506 2500.0291"
   version="1.1"
   id="svg14"
   sodipodi:docname="logo33.svg"
   inkscape:version="0.92.5 (2060ec1f9f, 2020-04-08)"
   width="54.683765"
   height="62.500729">
  <metadata
     id="metadata20">
    <rdf:RDF>
      <cc:Work
         rdf:about="">
        <dc:format>image/svg+xml</dc:format>
        <dc:type
           rdf:resource="http://purl.org/dc/dcmitype/StillImage" />
        <dc:title></dc:title>
      </cc:Work>
    </rdf:RDF>
  </metadata>
  <defs
     id="defs18" />
  <sodipodi:namedview
     pagecolor="#ffffff"
     bordercolor="#666666"
     borderopacity="1"
     objecttolerance="10"
     gridtolerance="10"
     guidetolerance="10"
     inkscape:pageopacity="0"
     inkscape:pageshadow="2"
     inkscape:window-width="1872"
     inkscape:window-height="1016"
     id="namedview16"
     showgrid="false"
     inkscape:zoom="12.0832"
     inkscape:cx="36.112177"
     inkscape:cy="34.821315"
     inkscape:window-x="0"
     inkscape:window-y="27"
     inkscape:window-maximized="1"
     inkscape:current-layer="svg14" />
  <path
     d="m 1095.0839,642 509,307 -509,291 -532.00004,-291 z"
     id="path2"
     inkscape:connector-curvature="0"
     style="fill:#ea259e" />
  <path
     d="m 563.08386,960 532.00004,290 -3,592 -529.00004,-280 z"
     id="path4"
     inkscape:connector-curvature="0"
     style="fill:#014c99" />
  <path
     d="m 1095.0839,1250 515,-290 15,602 -523,291 z"
     id="path6"
     inkscape:connector-curvature="0"
     style="fill:#08b0f9" />
  <g
     id="g12"
     style="fill:#2f2f2f"
     transform="translate(0.08385502)">
    <path
       d="m 2153,605 -8,-5 -508,-291 -532,-305 -7,-4 -6,3 a 203,203 0 0 0 -29,13 L 599,287 25,623 C 1,634 2,659 2,674 v 11 l -1,852 -1,316 c -1,19 7,36 21,42 l 660,375 390,222 c 8,5 17,8 25,8 a 29,29 0 0 0 19,-6 l 564,-325 480,-276 c 18,-8 29,-26 26,-43 l 2,-1197 c 3,-28 -20,-41 -34,-48 m -1059,76 465,270 -464,267 -158,-89 -312,-177 469,-271 m 528,233 -504,-293 a 40,40 0 0 0 -46,-1 L 562,916 98,653 422,464 1095,71 1714,426 2092,643 1622,914 M 66,708 l 462,262 9,576 c -1,18 8,34 22,41 l 307,176 197,113 v 539 L 64,1847 Z m 526,298 472,267 -1,530 -462,-265 z m 535,871 197,-114 304,-174 3,-2 c 6,-3 13,-8 18,-15 l 3,-4 v -5 l -1,-382 V 971 l 472,-273 v 465 l -1,678 -633,364 -363,209 1,-537 m 0,-73 v -531 l 465,-268 v 532 l -465,267"
       id="path8"
       inkscape:connector-curvature="0" />
    <path
       d="m 1081,133 c -14,2 -26,11 -32,23 -6,14 -5,29 2,39 8,12 21,19 36,19 a 73,73 0 0 0 8,-1 c 17,-2 30,-14 33,-29 a 38,38 0 0 0 -9,-38 41,41 0 0 0 -38,-13 m 27,175 c -15,-8 -32,-7 -44,1 -11,6 -18,18 -20,31 -1,14 5,26 13,33 a 40,40 0 0 0 29,11 46,46 0 0 0 18,-4 c 16,-6 25,-21 25,-36 1,-14 -8,-28 -21,-36 m 1,172 c -14,-9 -31,-9 -44,-2 -12,6 -20,18 -21,32 -1,14 5,29 16,36 a 41,41 0 0 0 26,8 46,46 0 0 0 18,-4 39,39 0 0 0 5,-70 M 430,1601 c -15,4 -26,16 -29,31 -3,16 2,31 13,40 a 37,37 0 0 0 25,9 39,39 0 0 0 9,-1 c 13,-3 24,-12 28,-23 7,-14 5,-31 -7,-44 a 37,37 0 0 0 -39,-12 m 1292,81 a 35,35 0 0 0 10,-2 c 13,-3 24,-12 27,-22 7,-15 4,-33 -7,-46 a 39,39 0 0 0 -41,-11 c -14,4 -25,16 -28,31 -3,16 3,31 14,40 6,7 15,10 25,10 m -1438,5 c -15,5 -25,19 -26,35 -2,17 6,33 19,40 a 38,38 0 0 0 20,6 42,42 0 0 0 17,-4 c 13,-6 22,-18 23,-29 3,-15 -3,-31 -15,-41 a 36,36 0 0 0 -38,-7 m 1580,80 a 39,39 0 0 0 14,-2 c 14,-5 24,-17 25,-29 4,-15 0,-30 -12,-41 a 38,38 0 0 0 -40,-8 43,43 0 0 0 -12,72 40,40 0 0 0 25,8 m -1690,9 c -12,-7 -27,-7 -38,0 -13,7 -21,20 -21,36 0,16 8,30 21,36 a 35,35 0 0 0 18,5 41,41 0 0 0 22,-6 c 13,-9 20,-24 19,-37 0,-14 -8,-27 -21,-35 m 1809,69 a 36,36 0 0 0 24,9 39,39 0 0 0 15,-3 c 14,-6 24,-20 25,-32 3,-16 -4,-32 -18,-41 -13,-9 -29,-9 -41,-1 a 42,42 0 0 0 -20,34 c -1,14 5,27 15,34"
       id="path10"
       inkscape:connector-curvature="0" />
  </g>
  <path
     style="fill:#3640f5;fill-opacity:1;stroke-width:2.64830518"
     d="M 992.1479,1158.8366 C 747.58953,1020.6678 629.33375,953.19999 629.38323,951.87068 c 0.0616,-1.65456 460.94567,-267.97027 464.34097,-268.31327 4.2292,-0.42724 462.3633,266.7715 460.4459,268.54703 -2.1633,2.00329 -458.2379,264.53616 -459.3445,264.41516 -0.3948,-0.043 -46.5998,-26.0005 -102.6777,-57.683 z"
     id="path827"
     inkscape:connector-curvature="0" />
  <path
     style="fill:#3640f5;fill-opacity:1;stroke-width:2.64830518"
     d="M 831.92544,1669.446 C 708.11718,1598.2309 605.7306,1539.5397 604.39971,1539.0211 c -1.85898,-0.7244 -12.91742,-528.4905 -11.12185,-530.7925 0.20487,-0.2627 106.11942,59.3242 235.36567,132.4152 l 234.99317,132.8929 8e-4,209.2161 c 7e-4,202.7491 -1.8138,316.63 -5.0402,316.3238 -0.8612,-0.082 -102.86359,-58.4155 -226.67186,-129.6306 z"
     id="path829"
     inkscape:connector-curvature="0" />
  <path
     style="fill:#3640f5;fill-opacity:1;stroke-width:2.64830518"
     d="m 1127.3349,1537.933 0.1233,-264.3963 218.7802,-125.7945 c 120.3291,-69.187 224.5564,-129.0992 231.6161,-133.1382 l 12.8359,-7.3437 -0.6748,265.0297 -0.6749,265.0297 -214.5127,123.2349 c -117.982,67.7792 -221.961,127.4064 -231.0646,132.5049 l -16.5519,9.2699 z"
     id="path831"
     inkscape:connector-curvature="0" />
</svg>
