<?xml version="1.0" encoding="UTF-8"?><svg viewBox="0 0 554 236" fill="none" xmlns="http://www.w3.org/2000/svg"><g clip-path="url(#a)" fill-rule="evenodd" clip-rule="evenodd" fill="#000"><path d="M473.7 159.6c0 .4-.4.8-.8.8H286.7a.6.6 0 0 1-.5-1l5.4-6.4c.9-1 2.1-1.6 3.4-1.6h168.2c.8 0 1.5-.7 1.5-1.5V91.2c0-.3.3-.6.6-.6h7.8c.3 0 .6.3.6.6v68.4Z"/><path d="M290.1 76.3h165.6v65.5c0 .3-.2.6-.6.6-37-.2-74.2-.1-111.3 0H290c-1.3 0-2.6.6-3.4 1.6l-12.2 14.8c-.8 1-2 1.6-3.4 1.6H99.6a.6.6 0 0 1-.6-.6v-65c0-.4.2-.6.6-.6H271c1.4 0 2.6-.6 3.4-1.6l12.3-14.7c.8-1 2-1.6 3.4-1.6ZM174.8 147c-4 0-7.5-.9-10.7-2.6-3.1-1.7-5.6-4-7.4-7-1.7-3-2.6-6.4-2.6-10.1a19 19 0 0 1 10-17.1c3.2-1.8 6.8-2.6 10.7-2.6 3.9 0 7.4.8 10.6 2.6a19 19 0 0 1 10 17 19.3 19.3 0 0 1-10 17.2 21.8 21.8 0 0 1-10.6 2.6Zm0-7.5c2.2 0 4.2-.6 6-1.6a11 11 0 0 0 4.2-4.3 13.4 13.4 0 0 0 0-12.6c-1-1.9-2.4-3.3-4.2-4.3-1.8-1-3.8-1.6-6-1.6a11.8 11.8 0 0 0-10.3 5.9 13 13 0 0 0-1.6 6.3c0 2.3.5 4.4 1.6 6.3a11.5 11.5 0 0 0 10.3 5.9Zm-27.6-31.3c.2 0 .3.2.3.3V146c0 .2-.1.3-.3.3h-6.7l-.3-.1-18.7-23V146c0 .2-.2.3-.3.3h-8a.3.3 0 0 1-.4-.3v-37.5c0-.1.1-.3.3-.3h6.8c.1 0 .2 0 .2.2l18.8 23v-22.9c0-.1 0-.3.3-.3h8Zm50.4 7.2h11.8V146c0 .2 0 .3.3.3h8.1c.2 0 .3-.1.3-.3v-30.6H230c.2 0 .3-.1.3-.3v-6.6c0-.1-.1-.3-.3-.3h-32.3c-.2 0-.3.2-.3.3v6.6c0 .2 0 .3.3.3Zm60.4 23c0-.2-.1-.2-.3-.2h-17.1l-.3.1-3.2 7.8c0 .1-.1.2-.3.2h-8.3a.3.3 0 0 1-.3-.4l16.6-37.5.3-.2h8.3l.2.2 16.7 37.5c0 .2 0 .4-.3.4h-8.5c-.1 0-.2 0-.3-.2l-3.2-7.8Zm-2.8-7-6-14.5-6 14.6h12Zm64-22.5c-.2-.1-.3-.5 0-.6a9.1 9.1 0 0 0 4.4-8c0-3-1.3-5.5-3.8-7.2a18 18 0 0 0-10.6-2.7H291c-.2 0-.3.1-.3.3v37.4c0 .1.1.3.3.3h19.3c5 0 8.7-1 11.3-2.7a8.8 8.8 0 0 0 3.9-7.7 9.4 9.4 0 0 0-6.3-9.1Zm-19.8-11.6c0-.1.1-.3.3-.3h8.4c2.2 0 3.8.4 5 1.2 1 .7 1.6 1.8 1.6 3.3 0 1.5-.5 2.6-1.6 3.3a8.8 8.8 0 0 1-5 1.2h-8.4a.3.3 0 0 1-.3-.3v-8.4Zm15.4 23.3a9.6 9.6 0 0 1-5.2 1.1h-9.9a.3.3 0 0 1-.3-.3v-8.7c0-.2.1-.3.3-.3h10c4.6 0 7 1.5 7 4.7a4 4 0 0 1-1.9 3.5Zm46.7 1c0-.2-.2-.3-.3-.3h-20a.3.3 0 0 1-.4-.3v-8.2l.3-.3h17c.2 0 .3-.1.3-.3V106c0-.2 0-.3-.3-.3h-17a.3.3 0 0 1-.3-.3v-7.6c0-.2.2-.3.3-.3h19.4l.3-.3v-6.5c0-.2-.2-.3-.3-.3h-28c-.3 0-.4.1-.4.3v37.4c0 .1.1.3.3.3h28.8l.3-.3v-6.5Zm41.4-31.2c.2 0 .3.1.3.3v37.4c0 .1-.1.3-.3.3h-6.7l-.3-.1-18.8-23v22.8c0 .1-.1.3-.3.3h-8a.3.3 0 0 1-.3-.3V90.7c0-.2 0-.3.3-.3h6.8l.2.1 18.8 23V90.7c0-.2.1-.3.3-.3h8Zm38.7 31.2c0-.2-.2-.3-.3-.3h-20a.3.3 0 0 1-.4-.3v-8.2l.3-.3h17c.2 0 .3-.1.3-.3V106c0-.2-.1-.3-.3-.3h-17a.3.3 0 0 1-.3-.3v-7.6c0-.2.2-.3.3-.3h19.4l.3-.3v-6.5c0-.2-.2-.3-.3-.3h-28.1c-.2 0-.3.1-.3.3v37.4c0 .1.1.3.3.3h28.8l.3-.3v-6.5Z"/><path d="M81.1 77.4c0-.5.4-.9.8-.9h192.4c.5 0 .8.6.5 1l-5.4 6.4c-.9 1-2.1 1.6-3.4 1.6H91.6c-.9 0-1.5.7-1.5 1.5v58.7c0 .3-.3.6-.6.6h-7.8a.6.6 0 0 1-.6-.6V77.4Z"/></g><defs><clipPath id="a"><path fill="#fff" d="M0 0h554v236H0z"/></clipPath></defs></svg>