<?xml version="1.0" encoding="UTF-8"?><svg viewBox="0 0 554 236" fill="none" xmlns="http://www.w3.org/2000/svg"><g clip-path="url(#a)"><g clip-path="url(#b)" fill-rule="evenodd" clip-rule="evenodd"><path d="M77.3 168.8c-6-1-17.7-7.5-23.5-12.9-7-6.3-6.8-5.7-6.8-33.8 0-23.5 0-24.3 1.4-27.2 2-4 6.2-8.3 11.3-11.2l4.7-2.5c.2 0-.2 1.5-.9 3.2C61 91.2 62 94 75 117c10 17.8 12.7 21.3 17.7 23.7 3.5 1.8 9 2.8 12.3 2.3 1.6-.2 2.8-.2 2.8 0 0 .3-2.6 4.5-5.9 9.4-6.2 9.2-10.3 13.7-14 15.2a28 28 0 0 1-10.6 1.1Z" fill="#D3D6F5"/><path d="M77.3 168.8c.4 0 .4 0 0-.3l13.6-13.9 7.5-12c2.2.7 4.4.8 6.6.5 1.6-.2 2.8-.2 2.8 0 0 .3-2.6 4.5-5.9 9.4-6.2 9.2-10.3 13.7-14 15.2-2.4 1-13.2 1.1-10.6 1.1Z" fill="#BBBFD8"/><path d="M71.2 76.4c3.4-5 14-13 21.1-16 8.5-3.7 7.9-3.8 32.4 7.6 20.4 9.5 21.1 9.9 23 12.3 2.8 3.4 5.9 9 6.3 14.7.2 2.7.1 11.3 0 11.5 0 .2-3-4.4-4-5.8-6.4-3.4-18-5-32.8-4.8-20.5.2-23.9 2.3-28.2 5.8-3 2.5-6.2 7-7.2 10.3-.4 1.4-1 2.6-1.2 2.5a126 126 0 0 1-5.6-9.2c-5.4-9.3-7.6-14.8-7.3-18.8a29 29 0 0 1 3.5-10Z" fill="#5281FB"/><path d="M157 118.9c2 5.6 2 19 0 26.7-2.2 9.1-1.7 8.7-26.4 22.3-20.5 11.4-21.3 11.7-24.5 12-4.5.2-10.3-1.4-15.3-4.4a46.7 46.7 0 0 1-4.4-3c-.1-.1 1.3-.5 3.1-.7 7.3-1 9.4-3.3 23.2-25.9 10.7-17.4 12.5-21.4 12.2-27a24 24 0 0 0-4-11.8c-1-1.3-3.6-3.9-3.4-4 .3-.1 7.3-.2 13.2.3 11 .9 14.4 1 17.5 3.6 2 1.6 8 9.5 8.7 11.9Z" fill="#BD56EC"/><path d="M70.9 76.4c-.2.4-.1.5.2.2l6.6 18.3 7.5 12a14.8 14.8 0 0 0-3.3 5.7c-.6 1.5-1 2.6-1.3 2.5a122 122 0 0 1-5.9-9.4c-5.5-9.6-7.8-15.2-7.5-19.2.2-2.6 4.8-12.3 3.7-10Z" fill="#305CB8"/><path d="M154.7 114c-.3-.3-6.3-1.6-18.2-3.9l-14.2.5c-.7-2.2-1.8-4-3.3-5.7-1-1.2-1.7-2.2-1.5-2.4.2-.1 5.2-.3 11.1-.3 11.1 0 14.6.8 18 3 2 1.5 9.5 11 8 8.9Z" fill="#8A40B7"/><path d="M201.9 142.9h-10.1l-17.1-46.3h10.2l11.9 35.3 11.8-35.3H219L202 143Zm22.3 0V96.6H248v8.4h-14.5v10.3H246v8.3h-12.5v11h15.1v8.3h-24.4Zm32.3 0V96.6h14c10.1 0 15.7 6.2 15.7 13.8 0 5.6-2.8 9.9-7 12.2l11 20.3h-10.4l-9-18.1h-5v18h-9.3Zm9.3-26h4.4c3.4 0 6.4-2.1 6.4-6.2 0-3.7-2.6-6-6.9-6h-3.9v12.2Zm29.9 26V96.6h9.3V143h-9.3Zm31.6-47.1c9.4 0 13.2 6.7 14.3 10l-7.7 3.6c-1-2.2-2.7-5-6.8-5-3.1 0-5 1.9-5 4.4 0 7.6 20.1 6.5 20.1 20.9 0 8-5.8 14-15.5 14-9.9 0-14-7-15.3-10.7l7.9-3.8c1.2 3 3.8 5.9 8 5.9 3.4 0 5.5-1.8 5.5-4.8 0-8-20-6.6-20-21.4 0-7.8 5.7-13.1 14.5-13.1Zm43.7 48a23.2 23.2 0 0 1-24.1-24c0-13.7 10.2-24 24.1-24a23 23 0 0 1 13.8 4.2l-2.7 8.2a20.3 20.3 0 0 0-11-3.7c-8.5 0-14.5 6.5-14.5 15.2 0 8.9 6 15.3 14.4 15.3 5 0 9.4-2.2 11.5-3.8l2.7 8.2c-2.8 2-7.4 4.3-14.2 4.3Zm42.6 0a23.3 23.3 0 0 1-24-24c0-13.5 9.8-24 24-24a23.3 23.3 0 0 1 24.1 24c0 13.5-9.8 24-24 24Zm0-39.3c-8.3 0-14.3 6.5-14.3 15.2 0 8.9 6 15.3 14.3 15.3 8.4 0 14.4-6.4 14.4-15.3 0-8.7-6-15.2-14.4-15.2Zm31 38.4V96.6h14.8c9 0 15.2 5.7 15.2 14.4 0 8.6-6.4 14.6-15.1 14.6H454V143h-9.4Zm9.4-25.3h4.1c4.1 0 7-2.7 7-6.6 0-3.8-3-6.3-6.8-6.3H454v12.9Zm27 25.3V96.6h23.8v8.4h-14.5v10.3h12.4v8.3h-12.4v11h15.1v8.3H481Z" fill="#373241"/></g></g><defs><clipPath id="a"><path fill="#fff" d="M0 0h554v236H0z"/></clipPath><clipPath id="b"><path fill="#fff" transform="translate(47 57)" d="M0 0h459v122H0z"/></clipPath></defs></svg>