<?xml version="1.0" encoding="UTF-8" standalone="no"?>
<svg
   xmlns:dc="http://purl.org/dc/elements/1.1/"
   xmlns:cc="http://creativecommons.org/ns#"
   xmlns:rdf="http://www.w3.org/1999/02/22-rdf-syntax-ns#"
   xmlns:svg="http://www.w3.org/2000/svg"
   xmlns="http://www.w3.org/2000/svg"
   xmlns:sodipodi="http://sodipodi.sourceforge.net/DTD/sodipodi-0.dtd"
   xmlns:inkscape="http://www.inkscape.org/namespaces/inkscape"
   width="67"
   height="67"
   viewBox="0 0 67 67"
   fill="none"
   version="1.1"
   id="svg21"
   sodipodi:docname="sender.svg"
   inkscape:version="0.92.5 (2060ec1f9f, 2020-04-08)">
  <metadata
     id="metadata25">
    <rdf:RDF>
      <cc:Work
         rdf:about="">
        <dc:format>image/svg+xml</dc:format>
        <dc:type
           rdf:resource="http://purl.org/dc/dcmitype/StillImage" />
      </cc:Work>
    </rdf:RDF>
  </metadata>
  <sodipodi:namedview
     pagecolor="#ffffff"
     bordercolor="#666666"
     borderopacity="1"
     objecttolerance="10"
     gridtolerance="10"
     guidetolerance="10"
     inkscape:pageopacity="0"
     inkscape:pageshadow="2"
     inkscape:window-width="1872"
     inkscape:window-height="1016"
     id="namedview23"
     showgrid="false"
     inkscape:zoom="3.5223881"
     inkscape:cx="33.5"
     inkscape:cy="33.5"
     inkscape:window-x="0"
     inkscape:window-y="27"
     inkscape:window-maximized="1"
     inkscape:current-layer="g14" />
  <g
     clip-path="url(#clip0)"
     id="g14">
    <path
       d="M56.4836 46.9111C55.1004 46.9111 53.746 47.4382 52.7085 48.4046C51.6711 49.3709 51.0371 50.6887 50.9219 52.0943H62.0453C61.93 50.6887 61.2961 49.3709 60.2586 48.4046C59.25 47.4382 57.8956 46.9111 56.4836 46.9111Z"
       fill="#F6BE00"
       id="path2"
       style="fill:#3640f5;fill-opacity:1" />
    <path
       d="M56.5095 44.7156C57.7486 44.7156 58.7572 43.6907 58.7572 42.4316C58.7572 41.1724 57.7486 40.1475 56.5095 40.1475C55.2703 40.1475 54.2617 41.1724 54.2617 42.4316C54.2617 43.6907 55.2415 44.7156 56.5095 44.7156Z"
       fill="#F6BE00"
       id="path4"
       style="fill:#3640f5;fill-opacity:1" />
    <path
       d="M62.1611 26.3547H39.4531V32.9435H62.1611V26.3547Z"
       fill="#F6BE00"
       id="path6"
       style="fill:#3640f5;fill-opacity:1" />
    <path
       d="M64.2926 32.9435C64.2926 33.5292 64.062 34.0856 63.6586 34.4956C63.2551 34.9055 62.7076 35.1398 62.1313 35.1398H39.4233C38.847 35.1398 38.2994 34.9055 37.896 34.4956C37.4926 34.0856 37.262 33.5292 37.262 32.9435V26.3548C37.262 25.7692 37.4926 25.2128 37.896 24.8028C38.2994 24.3928 38.847 24.1586 39.4233 24.1586H62.1313C62.7076 24.1586 63.2551 24.3928 63.6586 24.8028C64.062 25.2128 64.2926 25.7692 64.2926 26.3548V32.9435ZM52.0741 42.4313C52.0741 41.6992 52.247 40.9964 52.564 40.3229C52.9098 39.6787 53.3708 39.1223 53.976 38.7123C54.5812 38.3024 55.244 38.0388 55.9644 37.951C56.6848 37.8631 57.4053 37.951 58.0681 38.2145C58.7308 38.4781 59.336 38.9173 59.7971 39.4737C60.2582 40.0301 60.604 40.6743 60.7769 41.4064C60.9498 42.1092 60.921 42.8706 60.7481 43.5734C60.5751 44.2761 60.2005 44.9204 59.7106 45.4768C61.0362 46.0917 62.1889 47.1166 62.9958 48.3758C63.8027 49.635 64.2061 51.0991 64.2349 52.6219C64.2349 53.0611 64.062 53.5004 63.745 53.8225C63.4281 54.1446 62.9958 54.3203 62.5635 54.3203H50.4603C50.0281 54.3203 49.5958 54.1446 49.2788 53.8225C48.9618 53.5004 48.7889 53.0611 48.7889 52.6219C48.7889 51.1284 49.2212 49.6643 49.9992 48.3758C50.8061 47.1166 51.93 46.121 53.2844 45.4768C52.5063 44.6275 52.1029 43.5441 52.0741 42.4313ZM38.9046 40.645C38.9046 40.4986 38.9334 40.3522 38.9911 40.2351C39.0487 40.1179 39.1351 39.9715 39.2216 39.8837C39.3369 39.7958 39.4521 39.708 39.5674 39.6494C39.7115 39.5908 39.8556 39.5616 39.9708 39.5616H46.4547C46.7429 39.5616 47.0022 39.6787 47.204 39.8837C47.4057 40.0886 47.521 40.3815 47.521 40.645C47.521 40.9379 47.4057 41.2307 47.204 41.4357C47.0022 41.6407 46.7141 41.7578 46.4547 41.7578H39.9708C39.8268 41.7578 39.6827 41.7285 39.5674 41.6699C39.4521 41.6114 39.3081 41.5235 39.2216 41.4357C39.1351 41.3185 39.0487 41.2014 38.9911 41.0843C38.9334 40.9086 38.9046 40.7622 38.9046 40.645ZM39.9997 46.121H46.4835C46.7717 46.121 47.0311 46.2381 47.2328 46.4431C47.4345 46.6481 47.5498 46.9409 47.5498 47.2045C47.5498 47.4973 47.4345 47.7901 47.2328 47.9951C47.0311 48.2001 46.7429 48.3172 46.4835 48.3172H39.9997C39.7115 48.3172 39.4233 48.2001 39.2216 47.9951C39.0199 47.7901 38.9046 47.4973 38.9046 47.2045C38.9046 46.9116 39.0199 46.6481 39.2216 46.4431C39.4233 46.2381 39.7115 46.121 39.9997 46.121ZM63.2263 61.4947H38.3571C38.0689 61.4947 37.8096 61.3775 37.6078 61.1726C37.4061 60.9676 37.2908 60.6748 37.2908 60.3819C37.2908 60.0891 37.4061 59.8255 37.6078 59.6206C37.8096 59.4156 38.0977 59.2984 38.3571 59.2984H63.2263C63.5145 59.2984 63.7739 59.4156 63.9756 59.6206C64.1773 59.8255 64.2926 60.1184 64.2926 60.3819C64.2926 60.6748 64.1773 60.9676 63.9756 61.1726C63.7739 61.3775 63.5145 61.4947 63.2263 61.4947ZM64.8401 18.6826H36.7433C36.167 18.6826 35.6195 18.9169 35.216 19.3268C34.8126 19.7368 34.582 20.2932 34.582 20.8496V64.7744C34.582 65.3601 34.8126 65.9164 35.216 66.3264C35.6195 66.7364 36.167 66.9706 36.7433 66.9706H64.8401C65.4164 66.9706 65.964 66.7364 66.3674 66.3264C66.7708 65.9164 67.0014 65.3601 67.0014 64.7744V20.8496C67.0014 20.2639 66.7708 19.7075 66.3674 19.2976C65.964 18.8876 65.4164 18.6826 64.8401 18.6826Z"
       fill="#F6BE00"
       id="path8"
       style="fill:#3640f5;fill-opacity:1" />
    <path
       d="M51.871 51.597C51.871 51.8899 51.7557 52.1827 51.554 52.3877C51.3522 52.5927 51.0641 52.7098 50.7759 52.7098H3.22753C2.93935 52.7098 2.65118 52.5927 2.47828 52.3877C2.27656 52.1827 2.16129 51.8899 2.16129 51.597V47.2046C2.16129 46.9117 2.27656 46.6482 2.47828 46.4432C2.68 46.2382 2.96817 46.1211 3.22753 46.1211H50.7759C51.0641 46.1211 51.3234 46.2382 51.5252 46.4432C51.7269 46.6482 51.8421 46.941 51.8421 47.2046V51.597H51.871ZM5.41763 16.4572C5.41763 16.1643 5.5329 15.9008 5.73462 15.6958C5.93634 15.4908 6.22452 15.3737 6.51269 15.3737H13.6305C14.0052 18.712 15.5901 21.7867 18.0684 24.0122C20.5467 26.2378 23.7166 27.4677 27.0305 27.4677C30.3157 27.4677 33.5144 26.2378 35.9927 24.0122C38.471 21.7867 40.0559 18.712 40.4305 15.3737H47.5772C47.8654 15.3737 48.1247 15.4908 48.3264 15.6958C48.5282 15.9008 48.6434 16.1936 48.6434 16.4572V43.9248H5.41763V16.4572ZM27.4916 19.0341C28.846 19.0341 30.2004 19.2976 31.4396 19.8247C32.6787 20.3518 33.8026 21.1425 34.7535 22.1381C32.6499 24.1294 29.9123 25.2421 27.0305 25.2421C24.1488 25.2421 21.3824 24.1294 19.3075 22.1381C20.2585 21.1425 21.3824 20.3811 22.6215 19.8247C23.8606 19.3269 25.1862 19.0341 26.5406 19.0341H27.4916ZM27.0305 16.8379C26.3101 16.8379 25.6185 16.6329 25.0133 16.2229C24.4082 15.8129 23.9471 15.2566 23.6877 14.583C23.3996 13.9095 23.3419 13.1774 23.486 12.4747C23.6301 11.7426 23.9471 11.0983 24.4658 10.6005C24.9845 10.1027 25.6185 9.75131 26.3101 9.6049C27.0017 9.45848 27.7221 9.54633 28.3849 9.80988C29.0477 10.0734 29.5953 10.5712 29.9987 11.1569C30.4021 11.7719 30.6039 12.4747 30.6039 13.1774C30.6039 14.1438 30.2292 15.0809 29.5376 15.7837C28.8748 16.4572 27.9815 16.8379 27.0305 16.8379ZM27.0305 2.19624C29.1342 2.19624 31.1802 2.78191 32.9669 3.89467C34.7535 5.00743 36.1944 6.58872 37.1454 8.49213C38.0963 10.3955 38.4998 12.5039 38.3557 14.6416C38.1828 16.75 37.4624 18.7998 36.2232 20.4983C34.7824 19.0341 33.0245 17.9799 31.0649 17.3649C31.9006 16.545 32.4482 15.5201 32.7075 14.3781C32.9381 13.236 32.8228 12.0354 32.4193 10.9519C31.9871 9.86844 31.2378 8.93138 30.2869 8.28715C29.3359 7.64292 28.212 7.29152 27.0594 7.29152C25.9067 7.29152 24.7828 7.64292 23.8318 8.31643C22.8232 8.96066 22.1028 9.89773 21.6705 10.9812C21.2383 12.0647 21.1518 13.2653 21.3824 14.4073C21.6129 15.5494 22.1892 16.5743 23.0249 17.3942C21.0654 17.9799 19.2787 19.0341 17.8378 20.4983C16.6275 18.7705 15.8783 16.75 15.7054 14.6416C15.5325 12.5332 15.9647 10.3955 16.8869 8.49213C17.8378 6.58872 19.3075 5.00743 21.0942 3.89467C22.8809 2.78191 24.9269 2.19624 27.0305 2.19624ZM50.7759 43.9248V16.4572C50.7759 15.5787 50.4301 14.7587 49.8249 14.1438C49.2198 13.5288 48.4129 13.1774 47.5484 13.1774H40.4882C40.3441 9.63418 38.8744 6.29589 36.3673 3.8361C33.8602 1.37631 30.4886 0 27.0305 0C23.5148 0 20.172 1.37631 17.6649 3.8361C15.1578 6.29589 13.6594 9.63418 13.5441 13.1774H6.48387C5.61935 13.1774 4.81247 13.5288 4.17849 14.1438C3.57333 14.7587 3.22753 15.608 3.22753 16.4572V43.9248C2.36301 43.9248 1.55613 44.2762 0.92215 44.8912C0.345806 45.5061 0 46.3553 0 47.2046V51.597C0 52.4755 0.345806 53.2955 0.950968 53.9397C1.55613 54.5546 2.39183 54.906 3.25634 54.906H50.8047C51.6692 54.906 52.4761 54.5546 53.0813 53.9397C53.6864 53.3247 54.0322 52.4755 54.0322 51.597V47.2046C54.0322 46.3261 53.6864 45.5061 53.0813 44.8912C52.4761 44.2762 51.6404 43.9248 50.7759 43.9248Z"
       fill="#111111"
       id="path10" />
    <path
       d="M12.966 37.8932V33.5007H41.0627V37.8932H12.966ZM41.0627 31.3044H12.966C12.3896 31.3044 11.8421 31.5387 11.4387 31.9487C11.0352 32.3586 10.8047 32.915 10.8047 33.5007V37.8932C10.8047 38.4788 11.0352 39.0352 11.4387 39.4452C11.8421 39.8551 12.3896 40.0894 12.966 40.0894H41.0627C41.6391 40.0894 42.1866 39.8551 42.5901 39.4452C42.9935 39.0352 43.224 38.4788 43.224 37.8932V33.5007C43.224 32.915 42.9935 32.3586 42.5901 31.9487C42.1866 31.5387 41.6391 31.3044 41.0627 31.3044Z"
       fill="#111111"
       id="path12" />
  </g>
  <defs
     id="defs19">
    <clipPath
       id="clip0">
      <rect
         width="67"
         height="67"
         fill="white"
         id="rect16" />
    </clipPath>
  </defs>
</svg>
