<?xml version="1.0" encoding="UTF-8" standalone="no"?>
<svg
   xmlns:dc="http://purl.org/dc/elements/1.1/"
   xmlns:cc="http://creativecommons.org/ns#"
   xmlns:rdf="http://www.w3.org/1999/02/22-rdf-syntax-ns#"
   xmlns:svg="http://www.w3.org/2000/svg"
   xmlns="http://www.w3.org/2000/svg"
   xmlns:sodipodi="http://sodipodi.sourceforge.net/DTD/sodipodi-0.dtd"
   xmlns:inkscape="http://www.inkscape.org/namespaces/inkscape"
   width="67"
   height="67"
   viewBox="0 0 67 67"
   fill="none"
   version="1.1"
   id="svg1494"
   sodipodi:docname="transaction.svg"
   inkscape:version="0.92.5 (2060ec1f9f, 2020-04-08)">
  <metadata
     id="metadata1498">
    <rdf:RDF>
      <cc:Work
         rdf:about="">
        <dc:format>image/svg+xml</dc:format>
        <dc:type
           rdf:resource="http://purl.org/dc/dcmitype/StillImage" />
      </cc:Work>
    </rdf:RDF>
  </metadata>
  <sodipodi:namedview
     pagecolor="#ffffff"
     bordercolor="#666666"
     borderopacity="1"
     objecttolerance="10"
     gridtolerance="10"
     guidetolerance="10"
     inkscape:pageopacity="0"
     inkscape:pageshadow="2"
     inkscape:window-width="1872"
     inkscape:window-height="1016"
     id="namedview1496"
     showgrid="false"
     inkscape:zoom="9.9628179"
     inkscape:cx="25.906455"
     inkscape:cy="27.642897"
     inkscape:window-x="0"
     inkscape:window-y="27"
     inkscape:window-maximized="1"
     inkscape:current-layer="g1487" />
  <g
     clip-path="url(#clip0)"
     id="g1487">
    <path
       d="M18.0367 42.2663C20.0467 40.675 24.3179 33.5004 33.7817 33.5004H48.6612V38.4975C48.6612 38.6929 48.7171 38.8604 48.8008 39.0279C48.9125 39.1954 49.0242 39.3071 49.1917 39.4188C49.3592 39.5025 49.5546 39.5583 49.7221 39.5304C49.9175 39.5304 50.085 39.4746 50.2525 39.3629L66.4721 28.7546C66.6117 28.6429 66.7512 28.5313 66.8071 28.3638C66.8629 28.1963 67.0025 28.0846 67.0025 27.9171C67.0025 27.7496 66.9746 27.5821 66.8908 27.4146C66.8071 27.2471 66.6954 27.1354 66.5558 27.0238L50.3362 16.4154C50.1687 16.3038 50.0012 16.2479 49.8058 16.2479C49.6104 16.2479 49.4429 16.2758 49.2754 16.3875C49.1079 16.4713 48.9683 16.6108 48.8846 16.7783C48.8008 16.9458 48.745 17.1133 48.745 17.3088V22.3338H35.4567C30.3758 22.3338 25.4904 24.3717 21.8892 27.9729C18.2879 31.5742 16.25 36.4596 16.25 41.5404C16.25 41.7358 16.3058 41.9592 16.4175 42.1267C16.5292 42.2942 16.6967 42.4338 16.8921 42.5175C17.0875 42.6013 17.2829 42.6013 17.5062 42.5733C17.7017 42.5175 17.8692 42.4058 18.0367 42.2663Z"
       fill="#F6BE00"
       id="path1475"
       style="fill:#3640f5;fill-opacity:1" />
    <path
       d="M65.2147 40.9819C63.2047 42.5731 58.9334 49.7477 49.4418 49.7477H34.5622V44.7506C34.5622 44.5552 34.5064 44.3877 34.4226 44.2202C34.3389 44.0527 34.1993 43.9411 34.0318 43.8294C33.8643 43.7456 33.6689 43.6898 33.5014 43.6898C33.3059 43.6898 33.1384 43.7456 32.9709 43.8573L16.7514 54.4656C16.6118 54.5494 16.4722 54.689 16.4164 54.8565C16.3326 54.9961 16.3047 55.1915 16.3047 55.359C16.3047 55.5265 16.3605 55.694 16.4164 55.8615C16.5001 56.0011 16.6118 56.1406 16.7514 56.2244L32.9709 66.8327C33.1384 66.9444 33.3059 67.0002 33.5014 67.0002C33.6968 67.0002 33.8643 66.9723 34.0318 66.8886C34.1993 66.8048 34.3389 66.6652 34.4226 66.4977C34.5343 66.3302 34.5622 66.1627 34.5622 65.9673V60.9702H47.7947C52.8755 60.9702 57.7609 58.9323 61.3901 55.3311C64.9914 51.7298 67.0293 46.8444 67.0293 41.7356C67.0293 41.5402 66.9734 41.3169 66.8618 41.1494C66.7501 40.9819 66.5826 40.8423 66.3872 40.7586C66.1918 40.6748 65.9964 40.6748 65.773 40.7027C65.5218 40.7306 65.3543 40.8423 65.2147 40.9819Z"
       fill="#F6BE00"
       id="path1477"
       style="fill:#3640f5;fill-opacity:1" />
    <path
       d="M48.6867 9.35208C46.8442 9.12875 45.1412 8.26333 43.8292 6.95125C42.5171 5.63917 41.6796 3.93625 41.4283 2.09375H47.6258C47.905 2.09375 48.1562 2.20542 48.3517 2.40083C48.5471 2.59625 48.6587 2.87542 48.6587 3.12667V9.35208H48.6867ZM48.6867 22.0263C46.2858 22.2775 44.0525 23.3383 42.3217 25.0413C40.6187 26.7442 39.5579 29.0054 39.3067 31.3783H11.4738C11.2225 28.9775 10.1617 26.7442 8.45875 25.0413C6.72792 23.3383 4.49458 22.2775 2.09375 22.0263V11.4738C4.49458 11.2225 6.72792 10.1617 8.45875 8.45875C10.1617 6.75583 11.2225 4.49458 11.4738 2.09375H39.3067C39.5579 4.49458 40.6187 6.72792 42.3217 8.45875C44.0246 10.1617 46.2858 11.2225 48.6867 11.4738V22.0263ZM48.6867 30.3733C48.6867 30.6525 48.575 30.9317 48.3796 31.1271C48.1842 31.3225 47.905 31.4342 47.6537 31.4342H41.4562C41.6796 29.5917 42.545 27.8888 43.8571 26.5767C45.1692 25.2646 46.8721 24.4271 48.7146 24.1758V30.3733H48.6867ZM3.12667 31.4062C2.8475 31.4062 2.59625 31.2946 2.40083 31.0992C2.20542 30.9038 2.09375 30.6246 2.09375 30.3454V24.1479C3.93625 24.3713 5.63917 25.2367 6.95125 26.5488C8.26333 27.8608 9.10083 29.5638 9.35208 31.4062H3.12667ZM2.09375 3.12667C2.09375 2.8475 2.20542 2.59625 2.40083 2.40083C2.59625 2.20542 2.87542 2.09375 3.12667 2.09375H9.32417C9.10083 3.93625 8.26333 5.63917 6.95125 6.95125C5.63917 8.26333 3.93625 9.12875 2.09375 9.35208V3.12667ZM47.6258 0H3.12667C2.28917 0 1.5075 0.335 0.92125 0.92125C0.335 1.5075 0 2.31708 0 3.12667V30.3454C0 31.1829 0.335 31.9925 0.92125 32.5788C1.5075 33.165 2.31708 33.5 3.12667 33.5H47.6258C48.4633 33.5 49.245 33.165 49.8312 32.5788C50.4175 31.9925 50.7525 31.1829 50.7525 30.3454V3.12667C50.7525 2.28917 50.4175 1.5075 49.8312 0.92125C49.2729 0.335 48.4633 0 47.6258 0Z"
       fill="#111111"
       id="path1479" />
    <path
       d="M25.374 23.8126C23.9782 23.8126 22.6103 23.3939 21.4378 22.6122C20.2932 21.8584 19.3999 20.7418 18.8415 19.4576C18.3111 18.1734 18.1715 16.7497 18.4507 15.3818C18.7299 14.0139 19.3999 12.7576 20.377 11.7526C21.354 10.7755 22.6382 10.0776 24.0061 9.82635C25.374 9.54718 26.7978 9.68677 28.082 10.2172C29.3661 10.7476 30.4828 11.6689 31.2645 12.8134C32.0461 13.9859 32.437 15.3539 32.437 16.7497C32.437 18.6201 31.6832 20.4347 30.3711 21.7468C29.059 23.0588 27.2445 23.8126 25.374 23.8126ZM25.374 7.59302C23.5595 7.59302 21.8007 8.12343 20.2932 9.12843C18.7857 10.1334 17.6132 11.5572 16.9153 13.2322C16.2174 14.9072 16.0499 16.7497 16.4128 18.5364C16.7478 20.323 17.6132 21.9422 18.8974 23.2263C20.1815 24.5105 21.8007 25.3759 23.5874 25.7388C25.374 26.1018 27.2165 25.9063 28.8915 25.2084C30.5665 24.5105 31.9903 23.338 32.9953 21.8305C34.0003 20.323 34.5307 18.5643 34.5307 16.7497C34.5307 14.3209 33.5536 12.0039 31.8507 10.273C30.1478 8.5701 27.8028 7.59302 25.374 7.59302Z"
       fill="#111111"
       id="path1481" />
    <path
       d="M39.6406 16.7502C39.6406 17.0293 39.7523 17.3085 39.9477 17.5039C40.1431 17.6993 40.4223 17.811 40.7015 17.811H43.8281C44.1073 17.811 44.3585 17.6993 44.554 17.5039C44.7773 17.3085 44.889 17.0293 44.889 16.7502C44.889 16.471 44.7773 16.2197 44.5819 16.0243C44.3865 15.8289 44.1073 15.6893 43.8281 15.6893H40.7015C40.4223 15.6893 40.1431 15.801 39.9477 15.9964C39.7523 16.2197 39.6406 16.471 39.6406 16.7502Z"
       fill="#111111"
       id="path1483" />
    <path
       d="M10.0781 15.6893H6.92354C6.64438 15.6893 6.36521 15.801 6.16979 15.9964C6.00229 16.2197 5.89062 16.471 5.89062 16.7502C5.89062 17.0293 6.00229 17.3085 6.19771 17.5039C6.39313 17.6993 6.67229 17.811 6.95146 17.811H10.0781C10.3573 17.811 10.6085 17.6993 10.804 17.5039C10.9994 17.3085 11.111 17.0293 11.111 16.7502C11.111 16.471 10.9994 16.2197 10.804 16.0243C10.6085 15.8289 10.3573 15.6893 10.0781 15.6893Z"
       fill="#111111"
       id="path1485" />
  </g>
  <defs
     id="defs1492">
    <clipPath
       id="clip0">
      <rect
         width="67"
         height="67"
         fill="white"
         id="rect1489" />
    </clipPath>
  </defs>
</svg>
